<?xml version="1.0" encoding="UTF-8"?>
<svg xmlns="http://www.w3.org/2000/svg" version="1.1" width="512" height="512" viewBox="0 0 512 512"><g transform="scale(10.894)"><g transform="translate(5,5)"><path fill-rule="evenodd" d="M8 0.25L8 3.75A0.25 0.25 0 0 0 8.25 4L8.75 4A0.25 0.25 0 0 1 9 4.25L9 4.75A0.25 0.25 0 0 1 8.75 5L8.25 5A0.25 0.25 0 0 0 8 5.25L8 6.75A0.25 0.25 0 0 0 8.25 7L8.75 7A0.25 0.25 0 0 0 9 6.75L9 6.25A0.25 0.25 0 0 1 9.25 6L9.75 6A0.25 0.25 0 0 1 10 6.25L10 8.75A0.25 0.25 0 0 0 10.25 9L10.75 9A0.25 0.25 0 0 0 11 8.75L11 8.25A0.25 0.25 0 0 1 11.25 8L11.75 8A0.25 0.25 0 0 1 12 8.25L12 8.75A0.25 0.25 0 0 0 12.25 9L12.75 9A0.25 0.25 0 0 1 13 9.25L13 9.75A0.25 0.25 0 0 0 13.25 10L13.75 10A0.25 0.25 0 0 1 14 10.25L14 12.75A0.25 0.25 0 0 1 13.75 13L13.25 13A0.25 0.25 0 0 1 13 12.75L13 11.25A0.25 0.25 0 0 0 12.75 11L12.25 11A0.25 0.25 0 0 0 12 11.25L12 11.75A0.25 0.25 0 0 1 11.75 12L11.25 12A0.25 0.25 0 0 1 11 11.75L11 10.25A0.25 0.25 0 0 0 10.75 10L10.25 10A0.25 0.25 0 0 0 10 10.25L10 11.75A0.25 0.25 0 0 1 9.75 12L9.25 12A0.25 0.25 0 0 1 9 11.75L9 11.25A0.25 0.25 0 0 0 8.75 11L8.25 11A0.25 0.25 0 0 1 8 10.75L8 9.25A0.25 0.25 0 0 0 7.75 9L7.25 9A0.25 0.25 0 0 1 7 8.75L7 8.25A0.25 0.25 0 0 0 6.75 8L4.25 8A0.25 0.25 0 0 0 4 8.25L4 8.75A0.25 0.25 0 0 1 3.75 9L2.25 9A0.25 0.25 0 0 1 2 8.75L2 8.25A0.25 0.25 0 0 0 1.75 8L0.25 8A0.25 0.25 0 0 0 0 8.25L0 9.75A0.25 0.25 0 0 0 0.25 10L0.75 10A0.25 0.25 0 0 1 1 10.25L1 10.75A0.25 0.25 0 0 1 0.75 11L0.25 11A0.25 0.25 0 0 0 0 11.25L0 11.75A0.25 0.25 0 0 0 0.25 12L1.75 12A0.25 0.25 0 0 0 2 11.75L2 10.25A0.25 0.25 0 0 1 2.25 10L3.75 10A0.25 0.25 0 0 1 4 10.25L4 10.75A0.25 0.25 0 0 1 3.75 11L3.25 11A0.25 0.25 0 0 0 3 11.25L3 14.75A0.25 0.25 0 0 0 3.25 15L3.75 15A0.25 0.25 0 0 1 4 15.25L4 15.75A0.25 0.25 0 0 1 3.75 16L2.25 16A0.25 0.25 0 0 1 2 15.75L2 15.25A0.25 0.25 0 0 0 1.75 15L1.25 15A0.25 0.25 0 0 1 1 14.75L1 14.25A0.25 0.25 0 0 1 1.25 14L1.75 14A0.25 0.25 0 0 0 2 13.75L2 13.25A0.25 0.25 0 0 0 1.75 13L1.25 13A0.25 0.25 0 0 0 1 13.25L1 13.75A0.25 0.25 0 0 1 0.75 14L0.25 14A0.25 0.25 0 0 0 0 14.25L0 14.75A0.25 0.25 0 0 0 0.25 15L0.75 15A0.25 0.25 0 0 1 1 15.25L1 15.75A0.25 0.25 0 0 1 0.75 16L0.25 16A0.25 0.25 0 0 0 0 16.25L0 17.75A0.25 0.25 0 0 0 0.25 18L4.75 18A0.25 0.25 0 0 1 5 18.25L5 18.75A0.25 0.25 0 0 1 4.75 19L4.25 19A0.25 0.25 0 0 0 4 19.25L4 19.75A0.25 0.25 0 0 1 3.75 20L3.25 20A0.25 0.25 0 0 1 3 19.75L3 19.25A0.25 0.25 0 0 0 2.75 19L1.25 19A0.25 0.25 0 0 0 1 19.25L1 19.75A0.25 0.25 0 0 1 0.75 20L0.25 20A0.25 0.25 0 0 0 0 20.25L0 20.75A0.25 0.25 0 0 0 0.25 21L0.75 21A0.25 0.25 0 0 1 1 21.25L1 23.75A0.25 0.25 0 0 0 1.25 24L1.75 24A0.25 0.25 0 0 1 2 24.25L2 24.75A0.25 0.25 0 0 1 1.75 25L0.25 25A0.25 0.25 0 0 0 0 25.25L0 25.75A0.25 0.25 0 0 0 0.25 26L1.75 26A0.25 0.25 0 0 1 2 26.25L2 27.75A0.25 0.25 0 0 1 1.75 28L0.25 28A0.25 0.25 0 0 0 0 28.25L0 28.75A0.25 0.25 0 0 0 0.25 29L1.75 29A0.25 0.25 0 0 0 2 28.75L2 28.25A0.25 0.25 0 0 1 2.25 28L2.75 28A0.25 0.25 0 0 0 3 27.75L3 27.25A0.25 0.25 0 0 1 3.25 27L3.75 27A0.25 0.25 0 0 0 4 26.75L4 26.25A0.25 0.25 0 0 1 4.25 26L4.75 26A0.25 0.25 0 0 1 5 26.25L5 27.75A0.25 0.25 0 0 0 5.25 28L5.75 28A0.25 0.25 0 0 1 6 28.25L6 28.75A0.25 0.25 0 0 0 6.25 29L6.75 29A0.25 0.25 0 0 0 7 28.75L7 28.25A0.25 0.25 0 0 0 6.75 28L6.25 28A0.25 0.25 0 0 1 6 27.75L6 27.25A0.25 0.25 0 0 1 6.25 27L7.75 27A0.25 0.25 0 0 1 8 27.25L8 29.75A0.25 0.25 0 0 0 8.25 30L8.75 30A0.25 0.25 0 0 0 9 29.75L9 27.25A0.25 0.25 0 0 1 9.25 27L9.75 27A0.25 0.25 0 0 1 10 27.25L10 27.75A0.25 0.25 0 0 0 10.25 28L10.75 28A0.25 0.25 0 0 0 11 27.75L11 27.25A0.25 0.25 0 0 1 11.25 27L13.75 27A0.25 0.25 0 0 0 14 26.75L14 25.25A0.25 0.25 0 0 0 13.75 25L13.25 25A0.25 0.25 0 0 1 13 24.75L13 22.25A0.25 0.25 0 0 1 13.25 22L13.75 22A0.25 0.25 0 0 1 14 22.25L14 23.75A0.25 0.25 0 0 0 14.25 24L16.75 24A0.25 0.25 0 0 1 17 24.25L17 24.75A0.25 0.25 0 0 1 16.75 25L15.25 25A0.25 0.25 0 0 0 15 25.25L15 26.75A0.25 0.25 0 0 0 15.25 27L15.75 27A0.25 0.25 0 0 1 16 27.25L16 27.75A0.25 0.25 0 0 1 15.75 28L15.25 28A0.25 0.25 0 0 0 15 28.25L15 28.75A0.25 0.25 0 0 1 14.75 29L14.25 29A0.25 0.25 0 0 0 14 29.25L14 29.75A0.25 0.25 0 0 0 14.25 30L14.75 30A0.25 0.25 0 0 1 15 30.25L15 30.75A0.25 0.25 0 0 1 14.75 31L14.25 31A0.25 0.25 0 0 0 14 31.25L14 31.75A0.25 0.25 0 0 0 14.25 32L14.75 32A0.25 0.25 0 0 0 15 31.75L15 31.25A0.25 0.25 0 0 1 15.25 31L15.75 31A0.25 0.25 0 0 1 16 31.25L16 32.75A0.25 0.25 0 0 1 15.75 33L14.25 33A0.25 0.25 0 0 0 14 33.25L14 33.75A0.25 0.25 0 0 1 13.75 34L13.25 34A0.25 0.25 0 0 1 13 33.75L13 32.25A0.25 0.25 0 0 0 12.75 32L12.25 32A0.25 0.25 0 0 1 12 31.75L12 30.25A0.25 0.25 0 0 0 11.75 30L11.25 30A0.25 0.25 0 0 0 11 30.25L11 30.75A0.25 0.25 0 0 1 10.75 31L10.25 31A0.25 0.25 0 0 0 10 31.25L10 31.75A0.25 0.25 0 0 0 10.25 32L11.75 32A0.25 0.25 0 0 1 12 32.25L12 32.75A0.25 0.25 0 0 1 11.75 33L9.25 33A0.25 0.25 0 0 1 9 32.75L9 31.25A0.25 0.25 0 0 0 8.75 31L8.25 31A0.25 0.25 0 0 0 8 31.25L8 32.75A0.25 0.25 0 0 0 8.25 33L8.75 33A0.25 0.25 0 0 1 9 33.25L9 33.75A0.25 0.25 0 0 0 9.25 34L9.75 34A0.25 0.25 0 0 1 10 34.25L10 34.75A0.25 0.25 0 0 0 10.25 35L11.75 35A0.25 0.25 0 0 1 12 35.25L12 36.75A0.25 0.25 0 0 0 12.25 37L12.75 37A0.25 0.25 0 0 0 13 36.75L13 35.25A0.25 0.25 0 0 1 13.25 35L14.75 35A0.25 0.25 0 0 1 15 35.25L15 35.75A0.25 0.25 0 0 0 15.25 36L16.75 36A0.25 0.25 0 0 1 17 36.25L17 36.75A0.25 0.25 0 0 0 17.25 37L17.75 37A0.25 0.25 0 0 0 18 36.75L18 35.25A0.25 0.25 0 0 1 18.25 35L18.75 35A0.25 0.25 0 0 1 19 35.25L19 36.75A0.25 0.25 0 0 0 19.25 37L19.75 37A0.25 0.25 0 0 0 20 36.75L20 35.25A0.25 0.25 0 0 0 19.75 35L19.25 35A0.25 0.25 0 0 1 19 34.75L19 33.25A0.25 0.25 0 0 0 18.75 33L18.25 33A0.25 0.25 0 0 1 18 32.75L18 32.25A0.25 0.25 0 0 1 18.25 32L19.75 32A0.25 0.25 0 0 1 20 32.25L20 32.75A0.25 0.25 0 0 0 20.25 33L22.75 33A0.25 0.25 0 0 1 23 33.25L23 34.75A0.25 0.25 0 0 1 22.75 35L21.25 35A0.25 0.25 0 0 0 21 35.25L21 36.75A0.25 0.25 0 0 0 21.25 37L22.75 37A0.25 0.25 0 0 0 23 36.75L23 36.25A0.25 0.25 0 0 1 23.25 36L24.75 36A0.25 0.25 0 0 0 25 35.75L25 35.25A0.25 0.25 0 0 0 24.75 35L24.25 35A0.25 0.25 0 0 1 24 34.75L24 34.25A0.25 0.25 0 0 1 24.25 34L24.75 34A0.25 0.25 0 0 0 25 33.75L25 32.25A0.25 0.25 0 0 0 24.75 32L24.25 32A0.25 0.25 0 0 1 24 31.75L24 30.25A0.25 0.25 0 0 0 23.75 30L20.25 30A0.25 0.25 0 0 0 20 30.25L20 30.75A0.25 0.25 0 0 1 19.75 31L18.25 31A0.25 0.25 0 0 1 18 30.75L18 30.25A0.25 0.25 0 0 1 18.25 30L18.75 30A0.25 0.25 0 0 0 19 29.75L19 29.25A0.25 0.25 0 0 0 18.75 29L18.25 29A0.25 0.25 0 0 0 18 29.25L18 29.75A0.25 0.25 0 0 1 17.75 30L17.25 30A0.25 0.25 0 0 1 17 29.75L17 29.25A0.25 0.25 0 0 0 16.75 29L16.25 29A0.25 0.25 0 0 1 16 28.75L16 28.25A0.25 0.25 0 0 1 16.25 28L17.75 28A0.25 0.25 0 0 0 18 27.75L18 26.25A0.25 0.25 0 0 1 18.25 26L18.75 26A0.25 0.25 0 0 0 19 25.75L19 25.25A0.25 0.25 0 0 1 19.25 25L19.75 25A0.25 0.25 0 0 1 20 25.25L20 28.75A0.25 0.25 0 0 0 20.25 29L21.75 29A0.25 0.25 0 0 0 22 28.75L22 27.25A0.25 0.25 0 0 1 22.25 27L22.75 27A0.25 0.25 0 0 1 23 27.25L23 27.75A0.25 0.25 0 0 0 23.25 28L23.75 28A0.25 0.25 0 0 1 24 28.25L24 28.75A0.25 0.25 0 0 0 24.25 29L24.75 29A0.25 0.25 0 0 1 25 29.25L25 30.75A0.25 0.25 0 0 0 25.25 31L25.75 31A0.25 0.25 0 0 1 26 31.25L26 31.75A0.25 0.25 0 0 0 26.25 32L26.75 32A0.25 0.25 0 0 0 27 31.75L27 29.25A0.25 0.25 0 0 0 26.75 29L25.25 29A0.25 0.25 0 0 1 25 28.75L25 28.25A0.25 0.25 0 0 0 24.75 28L24.25 28A0.25 0.25 0 0 1 24 27.75L24 27.25A0.25 0.25 0 0 1 24.25 27L24.75 27A0.25 0.25 0 0 0 25 26.75L25 26.25A0.25 0.25 0 0 1 25.25 26L25.75 26A0.25 0.25 0 0 1 26 26.25L26 27.75A0.25 0.25 0 0 0 26.25 28L27.75 28A0.25 0.25 0 0 1 28 28.25L28 33.75A0.25 0.25 0 0 0 28.25 34L28.75 34A0.25 0.25 0 0 1 29 34.25L29 36.75A0.25 0.25 0 0 0 29.25 37L32.75 37A0.25 0.25 0 0 0 33 36.75L33 36.25A0.25 0.25 0 0 1 33.25 36L33.75 36A0.25 0.25 0 0 1 34 36.25L34 36.75A0.25 0.25 0 0 0 34.25 37L36.75 37A0.25 0.25 0 0 0 37 36.75L37 36.25A0.25 0.25 0 0 0 36.75 36L36.25 36A0.25 0.25 0 0 1 36 35.75L36 35.25A0.25 0.25 0 0 0 35.75 35L35.25 35A0.25 0.25 0 0 1 35 34.75L35 33.25A0.25 0.25 0 0 1 35.25 33L36.75 33A0.25 0.25 0 0 0 37 32.75L37 32.25A0.25 0.25 0 0 0 36.75 32L35.25 32A0.25 0.25 0 0 1 35 31.75L35 31.25A0.25 0.25 0 0 0 34.75 31L34.25 31A0.25 0.25 0 0 0 34 31.25L34 32.75A0.25 0.25 0 0 1 33.75 33L33.25 33A0.25 0.25 0 0 1 33 32.75L33 30.25A0.25 0.25 0 0 1 33.25 30L36.75 30A0.25 0.25 0 0 0 37 29.75L37 27.25A0.25 0.25 0 0 0 36.75 27L36.25 27A0.25 0.25 0 0 0 36 27.25L36 28.75A0.25 0.25 0 0 1 35.75 29L35.25 29A0.25 0.25 0 0 1 35 28.75L35 27.25A0.25 0.25 0 0 0 34.75 27L34.25 27A0.25 0.25 0 0 1 34 26.75L34 26.25A0.25 0.25 0 0 0 33.75 26L33.25 26A0.25 0.25 0 0 1 33 25.75L33 25.25A0.25 0.25 0 0 1 33.25 25L35.75 25A0.25 0.25 0 0 0 36 24.75L36 24.25A0.25 0.25 0 0 1 36.25 24L36.75 24A0.25 0.25 0 0 0 37 23.75L37 23.25A0.25 0.25 0 0 0 36.75 23L36.25 23A0.25 0.25 0 0 0 36 23.25L36 23.75A0.25 0.25 0 0 1 35.75 24L35.25 24A0.25 0.25 0 0 1 35 23.75L35 23.25A0.25 0.25 0 0 0 34.75 23L34.25 23A0.25 0.25 0 0 1 34 22.75L34 21.25A0.25 0.25 0 0 1 34.25 21L34.75 21A0.25 0.25 0 0 1 35 21.25L35 21.75A0.25 0.25 0 0 0 35.25 22L35.75 22A0.25 0.25 0 0 0 36 21.75L36 21.25A0.25 0.25 0 0 1 36.25 21L36.75 21A0.25 0.25 0 0 0 37 20.75L37 20.25A0.25 0.25 0 0 0 36.75 20L35.25 20A0.25 0.25 0 0 1 35 19.75L35 18.25A0.25 0.25 0 0 1 35.25 18L35.75 18A0.25 0.25 0 0 0 36 17.75L36 17.25A0.25 0.25 0 0 1 36.25 17L36.75 17A0.25 0.25 0 0 0 37 16.75L37 15.25A0.25 0.25 0 0 0 36.75 15L35.25 15A0.25 0.25 0 0 1 35 14.75L35 14.25A0.25 0.25 0 0 0 34.75 14L34.25 14A0.25 0.25 0 0 1 34 13.75L34 13.25A0.25 0.25 0 0 1 34.25 13L34.75 13A0.25 0.25 0 0 0 35 12.75L35 10.25A0.25 0.25 0 0 0 34.75 10L34.25 10A0.25 0.25 0 0 1 34 9.75L34 9.25A0.25 0.25 0 0 1 34.25 9L36.75 9A0.25 0.25 0 0 0 37 8.75L37 8.25A0.25 0.25 0 0 0 36.75 8L33.25 8A0.25 0.25 0 0 0 33 8.25L33 8.75A0.25 0.25 0 0 1 32.75 9L32.25 9A0.25 0.25 0 0 1 32 8.75L32 8.25A0.25 0.25 0 0 0 31.75 8L31.25 8A0.25 0.25 0 0 0 31 8.25L31 8.75A0.25 0.25 0 0 0 31.25 9L31.75 9A0.25 0.25 0 0 1 32 9.25L32 9.75A0.25 0.25 0 0 0 32.25 10L33.75 10A0.25 0.25 0 0 1 34 10.25L34 12.75A0.25 0.25 0 0 1 33.75 13L32.25 13A0.25 0.25 0 0 1 32 12.75L32 12.25A0.25 0.25 0 0 0 31.75 12L31.25 12A0.25 0.25 0 0 1 31 11.75L31 11.25A0.25 0.25 0 0 0 30.75 11L30.25 11A0.25 0.25 0 0 1 30 10.75L30 9.25A0.25 0.25 0 0 0 29.75 9L29.25 9A0.25 0.25 0 0 0 29 9.25L29 9.75A0.25 0.25 0 0 1 28.75 10L28.25 10A0.25 0.25 0 0 1 28 9.75L28 9.25A0.25 0.25 0 0 0 27.75 9L25.25 9A0.25 0.25 0 0 1 25 8.75L25 8.25A0.25 0.25 0 0 0 24.75 8L24.25 8A0.25 0.25 0 0 1 24 7.75L24 7.25A0.25 0.25 0 0 1 24.25 7L24.75 7A0.25 0.25 0 0 0 25 6.75L25 6.25A0.25 0.25 0 0 1 25.25 6L25.75 6A0.25 0.25 0 0 1 26 6.25L26 6.75A0.25 0.25 0 0 0 26.25 7L26.75 7A0.25 0.25 0 0 1 27 7.25L27 7.75A0.25 0.25 0 0 0 27.25 8L28.75 8A0.25 0.25 0 0 0 29 7.75L29 6.25A0.25 0.25 0 0 0 28.75 6L28.25 6A0.25 0.25 0 0 0 28 6.25L28 6.75A0.25 0.25 0 0 1 27.75 7L27.25 7A0.25 0.25 0 0 1 27 6.75L27 6.25A0.25 0.25 0 0 0 26.75 6L26.25 6A0.25 0.25 0 0 1 26 5.75L26 5.25A0.25 0.25 0 0 1 26.25 5L28.75 5A0.25 0.25 0 0 0 29 4.75L29 4.25A0.25 0.25 0 0 0 28.75 4L28.25 4A0.25 0.25 0 0 1 28 3.75L28 3.25A0.25 0.25 0 0 0 27.75 3L27.25 3A0.25 0.25 0 0 1 27 2.75L27 1.25A0.25 0.25 0 0 1 27.25 1L27.75 1A0.25 0.25 0 0 1 28 1.25L28 1.75A0.25 0.25 0 0 0 28.25 2L28.75 2A0.25 0.25 0 0 0 29 1.75L29 0.25A0.25 0.25 0 0 0 28.75 0L26.25 0A0.25 0.25 0 0 0 26 0.25L26 0.75A0.25 0.25 0 0 1 25.75 1L24.25 1A0.25 0.25 0 0 0 24 1.25L24 1.75A0.25 0.25 0 0 1 23.75 2L20.25 2A0.25 0.25 0 0 1 20 1.75L20 1.25A0.25 0.25 0 0 0 19.75 1L19.25 1A0.25 0.25 0 0 0 19 1.25L19 1.75A0.25 0.25 0 0 1 18.75 2L15.25 2A0.25 0.25 0 0 0 15 2.25L15 2.75A0.25 0.25 0 0 1 14.75 3L13.25 3A0.25 0.25 0 0 1 13 2.75L13 2.25A0.25 0.25 0 0 1 13.25 2L13.75 2A0.25 0.25 0 0 0 14 1.75L14 0.25A0.25 0.25 0 0 0 13.75 0L13.25 0A0.25 0.25 0 0 0 13 0.25L13 0.75A0.25 0.25 0 0 1 12.75 1L11.25 1A0.25 0.25 0 0 0 11 1.25L11 1.75A0.25 0.25 0 0 0 11.25 2L11.75 2A0.25 0.25 0 0 1 12 2.25L12 4.75A0.25 0.25 0 0 0 12.25 5L12.75 5A0.25 0.25 0 0 1 13 5.25L13 5.75A0.25 0.25 0 0 1 12.75 6L12.25 6A0.25 0.25 0 0 0 12 6.25L12 6.75A0.25 0.25 0 0 1 11.75 7L11.25 7A0.25 0.25 0 0 1 11 6.75L11 3.25A0.25 0.25 0 0 0 10.75 3L10.25 3A0.25 0.25 0 0 1 10 2.75L10 2.25A0.25 0.25 0 0 0 9.75 2L9.25 2A0.25 0.25 0 0 1 9 1.75L9 0.25A0.25 0.25 0 0 0 8.75 0L8.25 0A0.25 0.25 0 0 0 8 0.25ZM15 0.25L15 0.75A0.25 0.25 0 0 0 15.25 1L16.75 1A0.25 0.25 0 0 0 17 0.75L17 0.25A0.25 0.25 0 0 0 16.75 0L15.25 0A0.25 0.25 0 0 0 15 0.25ZM22 0.25L22 0.75A0.25 0.25 0 0 0 22.25 1L22.75 1A0.25 0.25 0 0 0 23 0.75L23 0.25A0.25 0.25 0 0 0 22.75 0L22.25 0A0.25 0.25 0 0 0 22 0.25ZM24 2.25L24 3.75A0.25 0.25 0 0 0 24.25 4L24.75 4A0.25 0.25 0 0 1 25 4.25L25 4.75A0.25 0.25 0 0 1 24.75 5L23.25 5A0.25 0.25 0 0 1 23 4.75L23 3.25A0.25 0.25 0 0 0 22.75 3L19.25 3A0.25 0.25 0 0 0 19 3.25L19 3.75A0.25 0.25 0 0 0 19.25 4L19.75 4A0.25 0.25 0 0 1 20 4.25L20 4.75A0.25 0.25 0 0 0 20.25 5L20.75 5A0.25 0.25 0 0 0 21 4.75L21 4.25A0.25 0.25 0 0 1 21.25 4L21.75 4A0.25 0.25 0 0 1 22 4.25L22 4.75A0.25 0.25 0 0 0 22.25 5L22.75 5A0.25 0.25 0 0 1 23 5.25L23 6.75A0.25 0.25 0 0 1 22.75 7L22.25 7A0.25 0.25 0 0 1 22 6.75L22 6.25A0.25 0.25 0 0 0 21.75 6L21.25 6A0.25 0.25 0 0 0 21 6.25L21 6.75A0.25 0.25 0 0 1 20.75 7L20.25 7A0.25 0.25 0 0 1 20 6.75L20 6.25A0.25 0.25 0 0 0 19.75 6L19.25 6A0.25 0.25 0 0 1 19 5.75L19 5.25A0.25 0.25 0 0 0 18.75 5L17.25 5A0.25 0.25 0 0 1 17 4.75L17 4.25A0.25 0.25 0 0 1 17.25 4L17.75 4A0.25 0.25 0 0 0 18 3.75L18 3.25A0.25 0.25 0 0 0 17.75 3L17.25 3A0.25 0.25 0 0 0 17 3.25L17 3.75A0.25 0.25 0 0 1 16.75 4L16.25 4A0.25 0.25 0 0 0 16 4.25L16 4.75A0.25 0.25 0 0 1 15.75 5L15.25 5A0.25 0.25 0 0 0 15 5.25L15 6.75A0.25 0.25 0 0 1 14.75 7L14.25 7A0.25 0.25 0 0 1 14 6.75L14 6.25A0.25 0.25 0 0 0 13.75 6L13.25 6A0.25 0.25 0 0 0 13 6.25L13 6.75A0.25 0.25 0 0 1 12.75 7L12.25 7A0.25 0.25 0 0 0 12 7.25L12 7.75A0.25 0.25 0 0 0 12.25 8L12.75 8A0.25 0.25 0 0 1 13 8.25L13 8.75A0.25 0.25 0 0 0 13.25 9L16.75 9A0.25 0.25 0 0 1 17 9.25L17 10.75A0.25 0.25 0 0 1 16.75 11L15.25 11A0.25 0.25 0 0 0 15 11.25L15 11.75A0.25 0.25 0 0 0 15.25 12L15.75 12A0.25 0.25 0 0 1 16 12.25L16 12.75A0.25 0.25 0 0 0 16.25 13L16.75 13A0.25 0.25 0 0 1 17 13.25L17 13.75A0.25 0.25 0 0 1 16.75 14L16.25 14A0.25 0.25 0 0 0 16 14.25L16 14.75A0.25 0.25 0 0 0 16.25 15L16.75 15A0.25 0.25 0 0 0 17 14.75L17 14.25A0.25 0.25 0 0 1 17.25 14L17.75 14A0.25 0.25 0 0 1 18 14.25L18 16.75A0.25 0.25 0 0 0 18.25 17L18.75 17A0.25 0.25 0 0 1 19 17.25L19 19.75A0.25 0.25 0 0 1 18.75 20L18.25 20A0.25 0.25 0 0 0 18 20.25L18 20.75A0.25 0.25 0 0 1 17.75 21L17.25 21A0.25 0.25 0 0 1 17 20.75L17 20.25A0.25 0.25 0 0 0 16.75 20L15.25 20A0.25 0.25 0 0 1 15 19.75L15 18.25A0.25 0.25 0 0 0 14.75 18L14.25 18A0.25 0.25 0 0 0 14 18.25L14 18.75A0.25 0.25 0 0 1 13.75 19L12.25 19A0.25 0.25 0 0 0 12 19.25L12 19.75A0.25 0.25 0 0 1 11.75 20L11.25 20A0.25 0.25 0 0 0 11 20.25L11 20.75A0.25 0.25 0 0 1 10.75 21L10.25 21A0.25 0.25 0 0 0 10 21.25L10 21.75A0.25 0.25 0 0 1 9.75 22L9.25 22A0.25 0.25 0 0 1 9 21.75L9 19.25A0.25 0.25 0 0 1 9.25 19L9.75 19A0.25 0.25 0 0 0 10 18.75L10 18.25A0.25 0.25 0 0 0 9.75 18L8.25 18A0.25 0.25 0 0 0 8 18.25L8 20.75A0.25 0.25 0 0 1 7.75 21L6.25 21A0.25 0.25 0 0 1 6 20.75L6 20.25A0.25 0.25 0 0 1 6.25 20L6.75 20A0.25 0.25 0 0 0 7 19.75L7 19.25A0.25 0.25 0 0 0 6.75 19L5.25 19A0.25 0.25 0 0 0 5 19.25L5 19.75A0.25 0.25 0 0 1 4.75 20L4.25 20A0.25 0.25 0 0 0 4 20.25L4 21.75A0.25 0.25 0 0 1 3.75 22L3.25 22A0.25 0.25 0 0 1 3 21.75L3 20.25A0.25 0.25 0 0 0 2.75 20L1.25 20A0.25 0.25 0 0 0 1 20.25L1 20.75A0.25 0.25 0 0 0 1.25 21L1.75 21A0.25 0.25 0 0 1 2 21.25L2 21.75A0.25 0.25 0 0 0 2.25 22L2.75 22A0.25 0.25 0 0 1 3 22.25L3 22.75A0.25 0.25 0 0 1 2.75 23L2.25 23A0.25 0.25 0 0 0 2 23.25L2 23.75A0.25 0.25 0 0 0 2.25 24L2.75 24A0.25 0.25 0 0 1 3 24.25L3 25.75A0.25 0.25 0 0 0 3.25 26L3.75 26A0.25 0.25 0 0 0 4 25.75L4 24.25A0.25 0.25 0 0 0 3.75 24L3.25 24A0.25 0.25 0 0 1 3 23.75L3 23.25A0.25 0.25 0 0 1 3.25 23L3.75 23A0.25 0.25 0 0 0 4 22.75L4 22.25A0.25 0.25 0 0 1 4.25 22L7.75 22A0.25 0.25 0 0 1 8 22.25L8 22.75A0.25 0.25 0 0 1 7.75 23L5.25 23A0.25 0.25 0 0 0 5 23.25L5 25.75A0.25 0.25 0 0 0 5.25 26L7.75 26A0.25 0.25 0 0 1 8 26.25L8 26.75A0.25 0.25 0 0 0 8.25 27L8.75 27A0.25 0.25 0 0 0 9 26.75L9 25.25A0.25 0.25 0 0 0 8.75 25L6.25 25A0.25 0.25 0 0 1 6 24.75L6 24.25A0.25 0.25 0 0 1 6.25 24L7.75 24A0.25 0.25 0 0 0 8 23.75L8 23.25A0.25 0.25 0 0 1 8.25 23L8.75 23A0.25 0.25 0 0 1 9 23.25L9 23.75A0.25 0.25 0 0 0 9.25 24L9.75 24A0.25 0.25 0 0 1 10 24.25L10 24.75A0.25 0.25 0 0 0 10.25 25L11.75 25A0.25 0.25 0 0 1 12 25.25L12 25.75A0.25 0.25 0 0 0 12.25 26L12.75 26A0.25 0.25 0 0 0 13 25.75L13 25.25A0.25 0.25 0 0 0 12.75 25L12.25 25A0.25 0.25 0 0 1 12 24.75L12 24.25A0.25 0.25 0 0 0 11.75 24L10.25 24A0.25 0.25 0 0 1 10 23.75L10 23.25A0.25 0.25 0 0 1 10.25 23L10.75 23A0.25 0.25 0 0 0 11 22.75L11 21.25A0.25 0.25 0 0 1 11.25 21L11.75 21A0.25 0.25 0 0 1 12 21.25L12 21.75A0.25 0.25 0 0 0 12.25 22L12.75 22A0.25 0.25 0 0 0 13 21.75L13 21.25A0.25 0.25 0 0 1 13.25 21L15.75 21A0.25 0.25 0 0 1 16 21.25L16 22.75A0.25 0.25 0 0 0 16.25 23L17.75 23A0.25 0.25 0 0 1 18 23.25L18 23.75A0.25 0.25 0 0 0 18.25 24L20.75 24A0.25 0.25 0 0 0 21 23.75L21 23.25A0.25 0.25 0 0 1 21.25 23L21.75 23A0.25 0.25 0 0 1 22 23.25L22 23.75A0.25 0.25 0 0 0 22.25 24L22.75 24A0.25 0.25 0 0 0 23 23.75L23 23.25A0.25 0.25 0 0 0 22.75 23L22.25 23A0.25 0.25 0 0 1 22 22.75L22 22.25A0.25 0.25 0 0 1 22.25 22L22.75 22A0.25 0.25 0 0 0 23 21.75L23 21.25A0.25 0.25 0 0 1 23.25 21L23.75 21A0.25 0.25 0 0 1 24 21.25L24 22.75A0.25 0.25 0 0 0 24.25 23L24.75 23A0.25 0.25 0 0 1 25 23.25L25 24.75A0.25 0.25 0 0 1 24.75 25L24.25 25A0.25 0.25 0 0 0 24 25.25L24 25.75A0.25 0.25 0 0 0 24.25 26L24.75 26A0.25 0.25 0 0 0 25 25.75L25 25.25A0.25 0.25 0 0 1 25.25 25L25.75 25A0.25 0.25 0 0 1 26 25.25L26 25.75A0.25 0.25 0 0 0 26.25 26L26.75 26A0.25 0.25 0 0 0 27 25.75L27 25.25A0.25 0.25 0 0 1 27.25 25L28.75 25A0.25 0.25 0 0 1 29 25.25L29 25.75A0.25 0.25 0 0 1 28.75 26L28.25 26A0.25 0.25 0 0 0 28 26.25L28 26.75A0.25 0.25 0 0 0 28.25 27L28.75 27A0.25 0.25 0 0 1 29 27.25L29 27.75A0.25 0.25 0 0 0 29.25 28L32.75 28A0.25 0.25 0 0 1 33 28.25L33 28.75A0.25 0.25 0 0 0 33.25 29L33.75 29A0.25 0.25 0 0 0 34 28.75L34 27.25A0.25 0.25 0 0 0 33.75 27L33.25 27A0.25 0.25 0 0 1 33 26.75L33 26.25A0.25 0.25 0 0 0 32.75 26L32.25 26A0.25 0.25 0 0 0 32 26.25L32 26.75A0.25 0.25 0 0 1 31.75 27L31.25 27A0.25 0.25 0 0 1 31 26.75L31 25.25A0.25 0.25 0 0 1 31.25 25L32.75 25A0.25 0.25 0 0 0 33 24.75L33 24.25A0.25 0.25 0 0 1 33.25 24L33.75 24A0.25 0.25 0 0 0 34 23.75L34 23.25A0.25 0.25 0 0 0 33.75 23L33.25 23A0.25 0.25 0 0 1 33 22.75L33 22.25A0.25 0.25 0 0 0 32.75 22L31.25 22A0.25 0.25 0 0 1 31 21.75L31 21.25A0.25 0.25 0 0 1 31.25 21L33.75 21A0.25 0.25 0 0 0 34 20.75L34 19.25A0.25 0.25 0 0 0 33.75 19L33.25 19A0.25 0.25 0 0 1 33 18.75L33 18.25A0.25 0.25 0 0 1 33.25 18L34.75 18A0.25 0.25 0 0 0 35 17.75L35 17.25A0.25 0.25 0 0 1 35.25 17L35.75 17A0.25 0.25 0 0 0 36 16.75L36 16.25A0.25 0.25 0 0 0 35.75 16L35.25 16A0.25 0.25 0 0 0 35 16.25L35 16.75A0.25 0.25 0 0 1 34.75 17L34.25 17A0.25 0.25 0 0 1 34 16.75L34 16.25A0.25 0.25 0 0 0 33.75 16L33.25 16A0.25 0.25 0 0 1 33 15.75L33 14.25A0.25 0.25 0 0 0 32.75 14L32.25 14A0.25 0.25 0 0 0 32 14.25L32 16.75A0.25 0.25 0 0 0 32.25 17L32.75 17A0.25 0.25 0 0 1 33 17.25L33 17.75A0.25 0.25 0 0 1 32.75 18L31.25 18A0.25 0.25 0 0 1 31 17.75L31 17.25A0.25 0.25 0 0 0 30.75 17L30.25 17A0.25 0.25 0 0 0 30 17.25L30 18.75A0.25 0.25 0 0 1 29.75 19L28.25 19A0.25 0.25 0 0 0 28 19.25L28 20.75A0.25 0.25 0 0 0 28.25 21L28.75 21A0.25 0.25 0 0 0 29 20.75L29 20.25A0.25 0.25 0 0 1 29.25 20L29.75 20A0.25 0.25 0 0 0 30 19.75L30 19.25A0.25 0.25 0 0 1 30.25 19L30.75 19A0.25 0.25 0 0 1 31 19.25L31 20.75A0.25 0.25 0 0 1 30.75 21L30.25 21A0.25 0.25 0 0 0 30 21.25L30 21.75A0.25 0.25 0 0 1 29.75 22L29.25 22A0.25 0.25 0 0 0 29 22.25L29 22.75A0.25 0.25 0 0 0 29.25 23L29.75 23A0.25 0.25 0 0 1 30 23.25L30 23.75A0.25 0.25 0 0 0 30.25 24L30.75 24A0.25 0.25 0 0 1 31 24.25L31 24.75A0.25 0.25 0 0 1 30.75 25L29.25 25A0.25 0.25 0 0 1 29 24.75L29 24.25A0.25 0.25 0 0 0 28.75 24L28.25 24A0.25 0.25 0 0 1 28 23.75L28 23.25A0.25 0.25 0 0 0 27.75 23L27.25 23A0.25 0.25 0 0 1 27 22.75L27 22.25A0.25 0.25 0 0 0 26.75 22L25.25 22A0.25 0.25 0 0 1 25 21.75L25 21.25A0.25 0.25 0 0 1 25.25 21L26.75 21A0.25 0.25 0 0 0 27 20.75L27 20.25A0.25 0.25 0 0 0 26.75 20L26.25 20A0.25 0.25 0 0 1 26 19.75L26 19.25A0.25 0.25 0 0 1 26.25 19L26.75 19A0.25 0.25 0 0 0 27 18.75L27 18.25A0.25 0.25 0 0 0 26.75 18L26.25 18A0.25 0.25 0 0 0 26 18.25L26 18.75A0.25 0.25 0 0 1 25.75 19L24.25 19A0.25 0.25 0 0 0 24 19.25L24 19.75A0.25 0.25 0 0 1 23.75 20L23.25 20A0.25 0.25 0 0 1 23 19.75L23 17.25A0.25 0.25 0 0 1 23.25 17L23.75 17A0.25 0.25 0 0 1 24 17.25L24 17.75A0.25 0.25 0 0 0 24.25 18L24.75 18A0.25 0.25 0 0 0 25 17.75L25 17.25A0.25 0.25 0 0 1 25.25 17L28.75 17A0.25 0.25 0 0 0 29 16.75L29 16.25A0.25 0.25 0 0 1 29.25 16L30.75 16A0.25 0.25 0 0 0 31 15.75L31 13.25A0.25 0.25 0 0 0 30.75 13L30.25 13A0.25 0.25 0 0 0 30 13.25L30 13.75A0.25 0.25 0 0 1 29.75 14L29.25 14A0.25 0.25 0 0 1 29 13.75L29 12.25A0.25 0.25 0 0 1 29.25 12L29.75 12A0.25 0.25 0 0 0 30 11.75L30 11.25A0.25 0.25 0 0 0 29.75 11L28.25 11A0.25 0.25 0 0 0 28 11.25L28 15.75A0.25 0.25 0 0 1 27.75 16L26.25 16A0.25 0.25 0 0 1 26 15.75L26 12.25A0.25 0.25 0 0 1 26.25 12L26.75 12A0.25 0.25 0 0 0 27 11.75L27 11.25A0.25 0.25 0 0 0 26.75 11L26.25 11A0.25 0.25 0 0 1 26 10.75L26 10.25A0.25 0.25 0 0 0 25.75 10L25.25 10A0.25 0.25 0 0 1 25 9.75L25 9.25A0.25 0.25 0 0 0 24.75 9L24.25 9A0.25 0.25 0 0 1 24 8.75L24 8.25A0.25 0.25 0 0 0 23.75 8L23.25 8A0.25 0.25 0 0 1 23 7.75L23 7.25A0.25 0.25 0 0 1 23.25 7L23.75 7A0.25 0.25 0 0 0 24 6.75L24 6.25A0.25 0.25 0 0 1 24.25 6L24.75 6A0.25 0.25 0 0 0 25 5.75L25 5.25A0.25 0.25 0 0 1 25.25 5L25.75 5A0.25 0.25 0 0 0 26 4.75L26 4.25A0.25 0.25 0 0 0 25.75 4L25.25 4A0.25 0.25 0 0 1 25 3.75L25 3.25A0.25 0.25 0 0 1 25.25 3L25.75 3A0.25 0.25 0 0 0 26 2.75L26 2.25A0.25 0.25 0 0 0 25.75 2L24.25 2A0.25 0.25 0 0 0 24 2.25ZM13 4.25L13 4.75A0.25 0.25 0 0 0 13.25 5L13.75 5A0.25 0.25 0 0 0 14 4.75L14 4.25A0.25 0.25 0 0 0 13.75 4L13.25 4A0.25 0.25 0 0 0 13 4.25ZM16 6.25L16 6.75A0.25 0.25 0 0 1 15.75 7L15.25 7A0.25 0.25 0 0 0 15 7.25L15 7.75A0.25 0.25 0 0 0 15.25 8L15.75 8A0.25 0.25 0 0 0 16 7.75L16 7.25A0.25 0.25 0 0 1 16.25 7L16.75 7A0.25 0.25 0 0 1 17 7.25L17 8.75A0.25 0.25 0 0 0 17.25 9L17.75 9A0.25 0.25 0 0 1 18 9.25L18 10.75A0.25 0.25 0 0 1 17.75 11L17.25 11A0.25 0.25 0 0 0 17 11.25L17 12.75A0.25 0.25 0 0 0 17.25 13L17.75 13A0.25 0.25 0 0 1 18 13.25L18 13.75A0.25 0.25 0 0 0 18.25 14L18.75 14A0.25 0.25 0 0 0 19 13.75L19 13.25A0.25 0.25 0 0 1 19.25 13L20.75 13A0.25 0.25 0 0 1 21 13.25L21 15.75A0.25 0.25 0 0 1 20.75 16L20.25 16A0.25 0.25 0 0 0 20 16.25L20 16.75A0.25 0.25 0 0 0 20.25 17L20.75 17A0.25 0.25 0 0 1 21 17.25L21 17.75A0.25 0.25 0 0 0 21.25 18L21.75 18A0.25 0.25 0 0 0 22 17.75L22 17.25A0.25 0.25 0 0 1 22.25 17L22.75 17A0.25 0.25 0 0 0 23 16.75L23 15.25A0.25 0.25 0 0 1 23.25 15L24.75 15A0.25 0.25 0 0 0 25 14.75L25 14.25A0.25 0.25 0 0 0 24.75 14L24.25 14A0.25 0.25 0 0 1 24 13.75L24 13.25A0.25 0.25 0 0 1 24.25 13L24.75 13A0.25 0.25 0 0 0 25 12.75L25 12.25A0.25 0.25 0 0 0 24.75 12L23.25 12A0.25 0.25 0 0 1 23 11.75L23 11.25A0.25 0.25 0 0 1 23.25 11L24.75 11A0.25 0.25 0 0 0 25 10.75L25 10.25A0.25 0.25 0 0 0 24.75 10L24.25 10A0.25 0.25 0 0 1 24 9.75L24 9.25A0.25 0.25 0 0 0 23.75 9L23.25 9A0.25 0.25 0 0 1 23 8.75L23 8.25A0.25 0.25 0 0 0 22.75 8L22.25 8A0.25 0.25 0 0 1 22 7.75L22 7.25A0.25 0.25 0 0 0 21.75 7L21.25 7A0.25 0.25 0 0 0 21 7.25L21 7.75A0.25 0.25 0 0 1 20.75 8L19.25 8A0.25 0.25 0 0 0 19 8.25L19 8.75A0.25 0.25 0 0 1 18.75 9L18.25 9A0.25 0.25 0 0 1 18 8.75L18 7.25A0.25 0.25 0 0 1 18.25 7L18.75 7A0.25 0.25 0 0 0 19 6.75L19 6.25A0.25 0.25 0 0 0 18.75 6L18.25 6A0.25 0.25 0 0 0 18 6.25L18 6.75A0.25 0.25 0 0 1 17.75 7L17.25 7A0.25 0.25 0 0 1 17 6.75L17 6.25A0.25 0.25 0 0 0 16.75 6L16.25 6A0.25 0.25 0 0 0 16 6.25ZM6 9.25L6 9.75A0.25 0.25 0 0 1 5.75 10L5.25 10A0.25 0.25 0 0 0 5 10.25L5 11.75A0.25 0.25 0 0 1 4.75 12L4.25 12A0.25 0.25 0 0 0 4 12.25L4 12.75A0.25 0.25 0 0 0 4.25 13L5.75 13A0.25 0.25 0 0 1 6 13.25L6 13.75A0.25 0.25 0 0 1 5.75 14L4.25 14A0.25 0.25 0 0 0 4 14.25L4 14.75A0.25 0.25 0 0 0 4.25 15L5.75 15A0.25 0.25 0 0 1 6 15.25L6 15.75A0.25 0.25 0 0 1 5.75 16L4.25 16A0.25 0.25 0 0 0 4 16.25L4 16.75A0.25 0.25 0 0 0 4.25 17L4.75 17A0.25 0.25 0 0 1 5 17.25L5 17.75A0.25 0.25 0 0 0 5.25 18L6.75 18A0.25 0.25 0 0 0 7 17.75L7 17.25A0.25 0.25 0 0 1 7.25 17L7.75 17A0.25 0.25 0 0 0 8 16.75L8 16.25A0.25 0.25 0 0 1 8.25 16L8.75 16A0.25 0.25 0 0 1 9 16.25L9 16.75A0.25 0.25 0 0 0 9.25 17L9.75 17A0.25 0.25 0 0 0 10 16.75L10 15.25A0.25 0.25 0 0 1 10.25 15L10.75 15A0.25 0.25 0 0 1 11 15.25L11 15.75A0.25 0.25 0 0 0 11.25 16L11.75 16A0.25 0.25 0 0 0 12 15.75L12 15.25A0.25 0.25 0 0 1 12.25 15L12.75 15A0.25 0.25 0 0 1 13 15.25L13 15.75A0.25 0.25 0 0 0 13.25 16L13.75 16A0.25 0.25 0 0 1 14 16.25L14 16.75A0.25 0.25 0 0 0 14.25 17L16.75 17A0.25 0.25 0 0 0 17 16.75L17 16.25A0.25 0.25 0 0 0 16.75 16L15.25 16A0.25 0.25 0 0 1 15 15.75L15 14.25A0.25 0.25 0 0 0 14.75 14L12.25 14A0.25 0.25 0 0 1 12 13.75L12 13.25A0.25 0.25 0 0 0 11.75 13L9.25 13A0.25 0.25 0 0 0 9 13.25L9 13.75A0.25 0.25 0 0 0 9.25 14L9.75 14A0.25 0.25 0 0 1 10 14.25L10 14.75A0.25 0.25 0 0 1 9.75 15L8.25 15A0.25 0.25 0 0 0 8 15.25L8 15.75A0.25 0.25 0 0 1 7.75 16L7.25 16A0.25 0.25 0 0 1 7 15.75L7 15.25A0.25 0.25 0 0 0 6.75 15L6.25 15A0.25 0.25 0 0 1 6 14.75L6 14.25A0.25 0.25 0 0 1 6.25 14L6.75 14A0.25 0.25 0 0 0 7 13.75L7 13.25A0.25 0.25 0 0 0 6.75 13L6.25 13A0.25 0.25 0 0 1 6 12.75L6 12.25A0.25 0.25 0 0 1 6.25 12L7.75 12A0.25 0.25 0 0 0 8 11.75L8 11.25A0.25 0.25 0 0 0 7.75 11L6.25 11A0.25 0.25 0 0 1 6 10.75L6 10.25A0.25 0.25 0 0 1 6.25 10L6.75 10A0.25 0.25 0 0 0 7 9.75L7 9.25A0.25 0.25 0 0 0 6.75 9L6.25 9A0.25 0.25 0 0 0 6 9.25ZM19 9.25L19 10.75A0.25 0.25 0 0 1 18.75 11L18.25 11A0.25 0.25 0 0 0 18 11.25L18 11.75A0.25 0.25 0 0 0 18.25 12L19.75 12A0.25 0.25 0 0 0 20 11.75L20 9.25A0.25 0.25 0 0 0 19.75 9L19.25 9A0.25 0.25 0 0 0 19 9.25ZM22 9.25L22 10.75A0.25 0.25 0 0 0 22.25 11L22.75 11A0.25 0.25 0 0 0 23 10.75L23 9.25A0.25 0.25 0 0 0 22.75 9L22.25 9A0.25 0.25 0 0 0 22 9.25ZM36 11.25L36 12.75A0.25 0.25 0 0 0 36.25 13L36.75 13A0.25 0.25 0 0 0 37 12.75L37 11.25A0.25 0.25 0 0 0 36.75 11L36.25 11A0.25 0.25 0 0 0 36 11.25ZM22 13.25L22 14.75A0.25 0.25 0 0 0 22.25 15L22.75 15A0.25 0.25 0 0 0 23 14.75L23 13.25A0.25 0.25 0 0 0 22.75 13L22.25 13A0.25 0.25 0 0 0 22 13.25ZM11 14.25L11 14.75A0.25 0.25 0 0 0 11.25 15L11.75 15A0.25 0.25 0 0 0 12 14.75L12 14.25A0.25 0.25 0 0 0 11.75 14L11.25 14A0.25 0.25 0 0 0 11 14.25ZM6 16.25L6 16.75A0.25 0.25 0 0 0 6.25 17L6.75 17A0.25 0.25 0 0 0 7 16.75L7 16.25A0.25 0.25 0 0 0 6.75 16L6.25 16A0.25 0.25 0 0 0 6 16.25ZM17 18.25L17 18.75A0.25 0.25 0 0 0 17.25 19L17.75 19A0.25 0.25 0 0 0 18 18.75L18 18.25A0.25 0.25 0 0 0 17.75 18L17.25 18A0.25 0.25 0 0 0 17 18.25ZM20 19.25L20 19.75A0.25 0.25 0 0 1 19.75 20L19.25 20A0.25 0.25 0 0 0 19 20.25L19 20.75A0.25 0.25 0 0 1 18.75 21L18.25 21A0.25 0.25 0 0 0 18 21.25L18 22.75A0.25 0.25 0 0 0 18.25 23L18.75 23A0.25 0.25 0 0 0 19 22.75L19 21.25A0.25 0.25 0 0 1 19.25 21L19.75 21A0.25 0.25 0 0 0 20 20.75L20 20.25A0.25 0.25 0 0 1 20.25 20L20.75 20A0.25 0.25 0 0 1 21 20.25L21 20.75A0.25 0.25 0 0 0 21.25 21L22.75 21A0.25 0.25 0 0 0 23 20.75L23 20.25A0.25 0.25 0 0 0 22.75 20L22.25 20A0.25 0.25 0 0 1 22 19.75L22 19.25A0.25 0.25 0 0 0 21.75 19L20.25 19A0.25 0.25 0 0 0 20 19.25ZM12 20.25L12 20.75A0.25 0.25 0 0 0 12.25 21L12.75 21A0.25 0.25 0 0 0 13 20.75L13 20.25A0.25 0.25 0 0 0 12.75 20L12.25 20A0.25 0.25 0 0 0 12 20.25ZM24 20.25L24 20.75A0.25 0.25 0 0 0 24.25 21L24.75 21A0.25 0.25 0 0 0 25 20.75L25 20.25A0.25 0.25 0 0 0 24.75 20L24.25 20A0.25 0.25 0 0 0 24 20.25ZM26 23.25L26 23.75A0.25 0.25 0 0 0 26.25 24L26.75 24A0.25 0.25 0 0 0 27 23.75L27 23.25A0.25 0.25 0 0 0 26.75 23L26.25 23A0.25 0.25 0 0 0 26 23.25ZM17 25.25L17 25.75A0.25 0.25 0 0 1 16.75 26L16.25 26A0.25 0.25 0 0 0 16 26.25L16 26.75A0.25 0.25 0 0 0 16.25 27L16.75 27A0.25 0.25 0 0 0 17 26.75L17 26.25A0.25 0.25 0 0 1 17.25 26L17.75 26A0.25 0.25 0 0 0 18 25.75L18 25.25A0.25 0.25 0 0 0 17.75 25L17.25 25A0.25 0.25 0 0 0 17 25.25ZM22 25.25L22 25.75A0.25 0.25 0 0 1 21.75 26L21.25 26A0.25 0.25 0 0 0 21 26.25L21 26.75A0.25 0.25 0 0 0 21.25 27L21.75 27A0.25 0.25 0 0 0 22 26.75L22 26.25A0.25 0.25 0 0 1 22.25 26L22.75 26A0.25 0.25 0 0 0 23 25.75L23 25.25A0.25 0.25 0 0 0 22.75 25L22.25 25A0.25 0.25 0 0 0 22 25.25ZM10 26.25L10 26.75A0.25 0.25 0 0 0 10.25 27L10.75 27A0.25 0.25 0 0 0 11 26.75L11 26.25A0.25 0.25 0 0 0 10.75 26L10.25 26A0.25 0.25 0 0 0 10 26.25ZM29 26.25L29 26.75A0.25 0.25 0 0 0 29.25 27L29.75 27A0.25 0.25 0 0 0 30 26.75L30 26.25A0.25 0.25 0 0 0 29.75 26L29.25 26A0.25 0.25 0 0 0 29 26.25ZM29 29.25L29 31.75A0.25 0.25 0 0 0 29.25 32L31.75 32A0.25 0.25 0 0 0 32 31.75L32 29.25A0.25 0.25 0 0 0 31.75 29L29.25 29A0.25 0.25 0 0 0 29 29.25ZM16 30.25L16 30.75A0.25 0.25 0 0 0 16.25 31L16.75 31A0.25 0.25 0 0 0 17 30.75L17 30.25A0.25 0.25 0 0 0 16.75 30L16.25 30A0.25 0.25 0 0 0 16 30.25ZM30 30.25L30 30.75A0.25 0.25 0 0 0 30.25 31L30.75 31A0.25 0.25 0 0 0 31 30.75L31 30.25A0.25 0.25 0 0 0 30.75 30L30.25 30A0.25 0.25 0 0 0 30 30.25ZM23 32.25L23 32.75A0.25 0.25 0 0 0 23.25 33L23.75 33A0.25 0.25 0 0 0 24 32.75L24 32.25A0.25 0.25 0 0 0 23.75 32L23.25 32A0.25 0.25 0 0 0 23 32.25ZM26 33.25L26 33.75A0.25 0.25 0 0 0 26.25 34L26.75 34A0.25 0.25 0 0 0 27 33.75L27 33.25A0.25 0.25 0 0 0 26.75 33L26.25 33A0.25 0.25 0 0 0 26 33.25ZM31 33.25L31 35.75A0.25 0.25 0 0 0 31.25 36L32.75 36A0.25 0.25 0 0 0 33 35.75L33 35.25A0.25 0.25 0 0 1 33.25 35L33.75 35A0.25 0.25 0 0 0 34 34.75L34 34.25A0.25 0.25 0 0 0 33.75 34L33.25 34A0.25 0.25 0 0 1 33 33.75L33 33.25A0.25 0.25 0 0 0 32.75 33L31.25 33A0.25 0.25 0 0 0 31 33.25ZM16 34.25L16 34.75A0.25 0.25 0 0 0 16.25 35L16.75 35A0.25 0.25 0 0 0 17 34.75L17 34.25A0.25 0.25 0 0 0 16.75 34L16.25 34A0.25 0.25 0 0 0 16 34.25ZM8 35.25L8 36.75A0.25 0.25 0 0 0 8.25 37L9.75 37A0.25 0.25 0 0 0 10 36.75L10 36.25A0.25 0.25 0 0 0 9.75 36L9.25 36A0.25 0.25 0 0 1 9 35.75L9 35.25A0.25 0.25 0 0 0 8.75 35L8.25 35A0.25 0.25 0 0 0 8 35.25ZM27 35.25L27 36.75A0.25 0.25 0 0 0 27.25 37L27.75 37A0.25 0.25 0 0 0 28 36.75L28 35.25A0.25 0.25 0 0 0 27.75 35L27.25 35A0.25 0.25 0 0 0 27 35.25ZM0 0.25L0 6.75A0.25 0.25 0 0 0 0.25 7L6.75 7A0.25 0.25 0 0 0 7 6.75L7 0.25A0.25 0.25 0 0 0 6.75 0L0.25 0A0.25 0.25 0 0 0 0 0.25ZM1 1.25L1 5.75A0.25 0.25 0 0 0 1.25 6L5.75 6A0.25 0.25 0 0 0 6 5.75L6 1.25A0.25 0.25 0 0 0 5.75 1L1.25 1A0.25 0.25 0 0 0 1 1.25ZM2 2.25L2 4.75A0.25 0.25 0 0 0 2.25 5L4.75 5A0.25 0.25 0 0 0 5 4.75L5 2.25A0.25 0.25 0 0 0 4.75 2L2.25 2A0.25 0.25 0 0 0 2 2.25ZM30 0.25L30 6.75A0.25 0.25 0 0 0 30.25 7L36.75 7A0.25 0.25 0 0 0 37 6.75L37 0.25A0.25 0.25 0 0 0 36.75 0L30.25 0A0.25 0.25 0 0 0 30 0.25ZM31 1.25L31 5.75A0.25 0.25 0 0 0 31.25 6L35.75 6A0.25 0.25 0 0 0 36 5.75L36 1.25A0.25 0.25 0 0 0 35.75 1L31.25 1A0.25 0.25 0 0 0 31 1.25ZM32 2.25L32 4.75A0.25 0.25 0 0 0 32.25 5L34.75 5A0.25 0.25 0 0 0 35 4.75L35 2.25A0.25 0.25 0 0 0 34.75 2L32.25 2A0.25 0.25 0 0 0 32 2.25ZM0 30.25L0 36.75A0.25 0.25 0 0 0 0.25 37L6.75 37A0.25 0.25 0 0 0 7 36.75L7 30.25A0.25 0.25 0 0 0 6.75 30L0.25 30A0.25 0.25 0 0 0 0 30.25ZM1 31.25L1 35.75A0.25 0.25 0 0 0 1.25 36L5.75 36A0.25 0.25 0 0 0 6 35.75L6 31.25A0.25 0.25 0 0 0 5.75 31L1.25 31A0.25 0.25 0 0 0 1 31.25ZM2 32.25L2 34.75A0.25 0.25 0 0 0 2.25 35L4.75 35A0.25 0.25 0 0 0 5 34.75L5 32.25A0.25 0.25 0 0 0 4.75 32L2.25 32A0.25 0.25 0 0 0 2 32.25Z" fill="#000000" fill-opacity="0.9"/></g></g></svg>
