<?xml version="1.0" encoding="UTF-8"?>
<svg xmlns="http://www.w3.org/2000/svg" version="1.1" width="150" height="150" viewBox="0 0 150 150"><g transform="scale(2.727)"><g transform="translate(5,5)"><path fill-rule="evenodd" d="M8 0.25L8 3.75A0.25 0.25 0 0 0 8.25 4L10.75 4A0.25 0.25 0 0 1 11 4.25L11 5.75A0.25 0.25 0 0 1 10.75 6L10.25 6A0.25 0.25 0 0 1 10 5.75L10 5.25A0.25 0.25 0 0 0 9.75 5L8.25 5A0.25 0.25 0 0 0 8 5.25L8 6.75A0.25 0.25 0 0 0 8.25 7L8.75 7A0.25 0.25 0 0 1 9 7.25L9 8.75A0.25 0.25 0 0 1 8.75 9L7.25 9A0.25 0.25 0 0 1 7 8.75L7 8.25A0.25 0.25 0 0 0 6.75 8L4.25 8A0.25 0.25 0 0 0 4 8.25L4 8.75A0.25 0.25 0 0 1 3.75 9L3.25 9A0.25 0.25 0 0 0 3 9.25L3 9.75A0.25 0.25 0 0 1 2.75 10L1.25 10A0.25 0.25 0 0 1 1 9.75L1 9.25A0.25 0.25 0 0 1 1.25 9L1.75 9A0.25 0.25 0 0 0 2 8.75L2 8.25A0.25 0.25 0 0 0 1.75 8L0.25 8A0.25 0.25 0 0 0 0 8.25L0 9.75A0.25 0.25 0 0 0 0.25 10L0.75 10A0.25 0.25 0 0 1 1 10.25L1 10.75A0.25 0.25 0 0 0 1.25 11L2.75 11A0.25 0.25 0 0 1 3 11.25L3 11.75A0.25 0.25 0 0 1 2.75 12L1.25 12A0.25 0.25 0 0 0 1 12.25L1 12.75A0.25 0.25 0 0 1 0.75 13L0.25 13A0.25 0.25 0 0 0 0 13.25L0 14.75A0.25 0.25 0 0 0 0.25 15L0.75 15A0.25 0.25 0 0 1 1 15.25L1 15.75A0.25 0.25 0 0 1 0.75 16L0.25 16A0.25 0.25 0 0 0 0 16.25L0 16.75A0.25 0.25 0 0 0 0.25 17L0.75 17A0.25 0.25 0 0 1 1 17.25L1 17.75A0.25 0.25 0 0 1 0.75 18L0.25 18A0.25 0.25 0 0 0 0 18.25L0 20.75A0.25 0.25 0 0 0 0.25 21L0.75 21A0.25 0.25 0 0 0 1 20.75L1 20.25A0.25 0.25 0 0 1 1.25 20L1.75 20A0.25 0.25 0 0 0 2 19.75L2 19.25A0.25 0.25 0 0 1 2.25 19L2.75 19A0.25 0.25 0 0 0 3 18.75L3 17.25A0.25 0.25 0 0 1 3.25 17L4.75 17A0.25 0.25 0 0 1 5 17.25L5 17.75A0.25 0.25 0 0 1 4.75 18L4.25 18A0.25 0.25 0 0 0 4 18.25L4 19.75A0.25 0.25 0 0 1 3.75 20L3.25 20A0.25 0.25 0 0 0 3 20.25L3 21.75A0.25 0.25 0 0 1 2.75 22L2.25 22A0.25 0.25 0 0 0 2 22.25L2 23.75A0.25 0.25 0 0 1 1.75 24L1.25 24A0.25 0.25 0 0 1 1 23.75L1 23.25A0.25 0.25 0 0 0 0.75 23L0.25 23A0.25 0.25 0 0 0 0 23.25L0 25.75A0.25 0.25 0 0 0 0.25 26L0.75 26A0.25 0.25 0 0 1 1 26.25L1 26.75A0.25 0.25 0 0 1 0.75 27L0.25 27A0.25 0.25 0 0 0 0 27.25L0 27.75A0.25 0.25 0 0 0 0.25 28L0.75 28A0.25 0.25 0 0 0 1 27.75L1 27.25A0.25 0.25 0 0 1 1.25 27L3.75 27A0.25 0.25 0 0 0 4 26.75L4 26.25A0.25 0.25 0 0 1 4.25 26L4.75 26A0.25 0.25 0 0 1 5 26.25L5 27.75A0.25 0.25 0 0 1 4.75 28L2.25 28A0.25 0.25 0 0 0 2 28.25L2 28.75A0.25 0.25 0 0 0 2.25 29L3.75 29A0.25 0.25 0 0 1 4 29.25L4 29.75A0.25 0.25 0 0 0 4.25 30L5.75 30A0.25 0.25 0 0 1 6 30.25L6 30.75A0.25 0.25 0 0 1 5.75 31L5.25 31A0.25 0.25 0 0 0 5 31.25L5 31.75A0.25 0.25 0 0 0 5.25 32L5.75 32A0.25 0.25 0 0 1 6 32.25L6 32.75A0.25 0.25 0 0 0 6.25 33L6.75 33A0.25 0.25 0 0 1 7 33.25L7 33.75A0.25 0.25 0 0 1 6.75 34L6.25 34A0.25 0.25 0 0 0 6 34.25L6 34.75A0.25 0.25 0 0 0 6.25 35L6.75 35A0.25 0.25 0 0 0 7 34.75L7 34.25A0.25 0.25 0 0 1 7.25 34L7.75 34A0.25 0.25 0 0 1 8 34.25L8 35.75A0.25 0.25 0 0 1 7.75 36L6.25 36A0.25 0.25 0 0 0 6 36.25L6 36.75A0.25 0.25 0 0 0 6.25 37L7.75 37A0.25 0.25 0 0 1 8 37.25L8 37.75A0.25 0.25 0 0 0 8.25 38L8.75 38A0.25 0.25 0 0 1 9 38.25L9 38.75A0.25 0.25 0 0 1 8.75 39L8.25 39A0.25 0.25 0 0 0 8 39.25L8 40.75A0.25 0.25 0 0 0 8.25 41L8.75 41A0.25 0.25 0 0 1 9 41.25L9 41.75A0.25 0.25 0 0 0 9.25 42L9.75 42A0.25 0.25 0 0 1 10 42.25L10 42.75A0.25 0.25 0 0 0 10.25 43L10.75 43A0.25 0.25 0 0 1 11 43.25L11 43.75A0.25 0.25 0 0 0 11.25 44L11.75 44A0.25 0.25 0 0 0 12 43.75L12 43.25A0.25 0.25 0 0 0 11.75 43L11.25 43A0.25 0.25 0 0 1 11 42.75L11 41.25A0.25 0.25 0 0 1 11.25 41L11.75 41A0.25 0.25 0 0 1 12 41.25L12 41.75A0.25 0.25 0 0 0 12.25 42L15.75 42A0.25 0.25 0 0 1 16 42.25L16 42.75A0.25 0.25 0 0 1 15.75 43L14.25 43A0.25 0.25 0 0 0 14 43.25L14 44.75A0.25 0.25 0 0 0 14.25 45L14.75 45A0.25 0.25 0 0 0 15 44.75L15 44.25A0.25 0.25 0 0 1 15.25 44L15.75 44A0.25 0.25 0 0 1 16 44.25L16 44.75A0.25 0.25 0 0 0 16.25 45L16.75 45A0.25 0.25 0 0 0 17 44.75L17 44.25A0.25 0.25 0 0 0 16.75 44L16.25 44A0.25 0.25 0 0 1 16 43.75L16 43.25A0.25 0.25 0 0 1 16.25 43L17.75 43A0.25 0.25 0 0 1 18 43.25L18 44.75A0.25 0.25 0 0 0 18.25 45L18.75 45A0.25 0.25 0 0 0 19 44.75L19 43.25A0.25 0.25 0 0 1 19.25 43L19.75 43A0.25 0.25 0 0 1 20 43.25L20 44.75A0.25 0.25 0 0 0 20.25 45L22.75 45A0.25 0.25 0 0 0 23 44.75L23 44.25A0.25 0.25 0 0 1 23.25 44L23.75 44A0.25 0.25 0 0 1 24 44.25L24 44.75A0.25 0.25 0 0 0 24.25 45L24.75 45A0.25 0.25 0 0 0 25 44.75L25 44.25A0.25 0.25 0 0 1 25.25 44L25.75 44A0.25 0.25 0 0 0 26 43.75L26 43.25A0.25 0.25 0 0 1 26.25 43L26.75 43A0.25 0.25 0 0 1 27 43.25L27 44.75A0.25 0.25 0 0 0 27.25 45L27.75 45A0.25 0.25 0 0 0 28 44.75L28 43.25A0.25 0.25 0 0 1 28.25 43L28.75 43A0.25 0.25 0 0 1 29 43.25L29 43.75A0.25 0.25 0 0 0 29.25 44L29.75 44A0.25 0.25 0 0 1 30 44.25L30 44.75A0.25 0.25 0 0 0 30.25 45L30.75 45A0.25 0.25 0 0 0 31 44.75L31 44.25A0.25 0.25 0 0 0 30.75 44L30.25 44A0.25 0.25 0 0 1 30 43.75L30 43.25A0.25 0.25 0 0 1 30.25 43L31.75 43A0.25 0.25 0 0 1 32 43.25L32 44.75A0.25 0.25 0 0 0 32.25 45L32.75 45A0.25 0.25 0 0 0 33 44.75L33 43.25A0.25 0.25 0 0 1 33.25 43L33.75 43A0.25 0.25 0 0 0 34 42.75L34 41.25A0.25 0.25 0 0 1 34.25 41L37.75 41A0.25 0.25 0 0 1 38 41.25L38 41.75A0.25 0.25 0 0 1 37.75 42L37.25 42A0.25 0.25 0 0 0 37 42.25L37 42.75A0.25 0.25 0 0 1 36.75 43L35.25 43A0.25 0.25 0 0 0 35 43.25L35 43.75A0.25 0.25 0 0 1 34.75 44L34.25 44A0.25 0.25 0 0 0 34 44.25L34 44.75A0.25 0.25 0 0 0 34.25 45L35.75 45A0.25 0.25 0 0 0 36 44.75L36 44.25A0.25 0.25 0 0 1 36.25 44L36.75 44A0.25 0.25 0 0 1 37 44.25L37 44.75A0.25 0.25 0 0 0 37.25 45L37.75 45A0.25 0.25 0 0 0 38 44.75L38 43.25A0.25 0.25 0 0 1 38.25 43L38.75 43A0.25 0.25 0 0 0 39 42.75L39 41.25A0.25 0.25 0 0 1 39.25 41L39.75 41A0.25 0.25 0 0 1 40 41.25L40 43.75A0.25 0.25 0 0 1 39.75 44L39.25 44A0.25 0.25 0 0 0 39 44.25L39 44.75A0.25 0.25 0 0 0 39.25 45L39.75 45A0.25 0.25 0 0 0 40 44.75L40 44.25A0.25 0.25 0 0 1 40.25 44L41.75 44A0.25 0.25 0 0 0 42 43.75L42 43.25A0.25 0.25 0 0 1 42.25 43L42.75 43A0.25 0.25 0 0 0 43 42.75L43 41.25A0.25 0.25 0 0 1 43.25 41L43.75 41A0.25 0.25 0 0 1 44 41.25L44 42.75A0.25 0.25 0 0 0 44.25 43L44.75 43A0.25 0.25 0 0 0 45 42.75L45 39.25A0.25 0.25 0 0 0 44.75 39L44.25 39A0.25 0.25 0 0 1 44 38.75L44 37.25A0.25 0.25 0 0 1 44.25 37L44.75 37A0.25 0.25 0 0 0 45 36.75L45 36.25A0.25 0.25 0 0 0 44.75 36L43.25 36A0.25 0.25 0 0 0 43 36.25L43 36.75A0.25 0.25 0 0 1 42.75 37L42.25 37A0.25 0.25 0 0 1 42 36.75L42 36.25A0.25 0.25 0 0 0 41.75 36L39.25 36A0.25 0.25 0 0 1 39 35.75L39 35.25A0.25 0.25 0 0 1 39.25 35L39.75 35A0.25 0.25 0 0 0 40 34.75L40 34.25A0.25 0.25 0 0 0 39.75 34L39.25 34A0.25 0.25 0 0 1 39 33.75L39 31.25A0.25 0.25 0 0 1 39.25 31L40.75 31A0.25 0.25 0 0 0 41 30.75L41 30.25A0.25 0.25 0 0 0 40.75 30L39.25 30A0.25 0.25 0 0 1 39 29.75L39 29.25A0.25 0.25 0 0 0 38.75 29L38.25 29A0.25 0.25 0 0 1 38 28.75L38 28.25A0.25 0.25 0 0 1 38.25 28L39.75 28A0.25 0.25 0 0 1 40 28.25L40 28.75A0.25 0.25 0 0 0 40.25 29L41.75 29A0.25 0.25 0 0 0 42 28.75L42 28.25A0.25 0.25 0 0 0 41.75 28L41.25 28A0.25 0.25 0 0 1 41 27.75L41 26.25A0.25 0.25 0 0 0 40.75 26L40.25 26A0.25 0.25 0 0 1 40 25.75L40 25.25A0.25 0.25 0 0 1 40.25 25L40.75 25A0.25 0.25 0 0 0 41 24.75L41 23.25A0.25 0.25 0 0 1 41.25 23L41.75 23A0.25 0.25 0 0 0 42 22.75L42 22.25A0.25 0.25 0 0 1 42.25 22L42.75 22A0.25 0.25 0 0 1 43 22.25L43 22.75A0.25 0.25 0 0 0 43.25 23L43.75 23A0.25 0.25 0 0 0 44 22.75L44 21.25A0.25 0.25 0 0 1 44.25 21L44.75 21A0.25 0.25 0 0 0 45 20.75L45 20.25A0.25 0.25 0 0 0 44.75 20L44.25 20A0.25 0.25 0 0 1 44 19.75L44 17.25A0.25 0.25 0 0 1 44.25 17L44.75 17A0.25 0.25 0 0 0 45 16.75L45 15.25A0.25 0.25 0 0 0 44.75 15L44.25 15A0.25 0.25 0 0 1 44 14.75L44 14.25A0.25 0.25 0 0 0 43.75 14L43.25 14A0.25 0.25 0 0 1 43 13.75L43 13.25A0.25 0.25 0 0 1 43.25 13L44.75 13A0.25 0.25 0 0 0 45 12.75L45 12.25A0.25 0.25 0 0 0 44.75 12L44.25 12A0.25 0.25 0 0 1 44 11.75L44 10.25A0.25 0.25 0 0 0 43.75 10L43.25 10A0.25 0.25 0 0 1 43 9.75L43 9.25A0.25 0.25 0 0 1 43.25 9L44.75 9A0.25 0.25 0 0 0 45 8.75L45 8.25A0.25 0.25 0 0 0 44.75 8L41.25 8A0.25 0.25 0 0 0 41 8.25L41 8.75A0.25 0.25 0 0 1 40.75 9L40.25 9A0.25 0.25 0 0 1 40 8.75L40 8.25A0.25 0.25 0 0 0 39.75 8L39.25 8A0.25 0.25 0 0 0 39 8.25L39 8.75A0.25 0.25 0 0 1 38.75 9L38.25 9A0.25 0.25 0 0 0 38 9.25L38 9.75A0.25 0.25 0 0 1 37.75 10L37.25 10A0.25 0.25 0 0 1 37 9.75L37 9.25A0.25 0.25 0 0 0 36.75 9L35.25 9A0.25 0.25 0 0 0 35 9.25L35 10.75A0.25 0.25 0 0 1 34.75 11L34.25 11A0.25 0.25 0 0 1 34 10.75L34 8.25A0.25 0.25 0 0 1 34.25 8L34.75 8A0.25 0.25 0 0 0 35 7.75L35 6.25A0.25 0.25 0 0 0 34.75 6L34.25 6A0.25 0.25 0 0 0 34 6.25L34 7.75A0.25 0.25 0 0 1 33.75 8L32.25 8A0.25 0.25 0 0 1 32 7.75L32 7.25A0.25 0.25 0 0 1 32.25 7L32.75 7A0.25 0.25 0 0 0 33 6.75L33 5.25A0.25 0.25 0 0 1 33.25 5L36.75 5A0.25 0.25 0 0 0 37 4.75L37 3.25A0.25 0.25 0 0 0 36.75 3L36.25 3A0.25 0.25 0 0 1 36 2.75L36 1.25A0.25 0.25 0 0 1 36.25 1L36.75 1A0.25 0.25 0 0 0 37 0.75L37 0.25A0.25 0.25 0 0 0 36.75 0L36.25 0A0.25 0.25 0 0 0 36 0.25L36 0.75A0.25 0.25 0 0 1 35.75 1L35.25 1A0.25 0.25 0 0 0 35 1.25L35 3.75A0.25 0.25 0 0 1 34.75 4L34.25 4A0.25 0.25 0 0 1 34 3.75L34 2.25A0.25 0.25 0 0 0 33.75 2L33.25 2A0.25 0.25 0 0 1 33 1.75L33 1.25A0.25 0.25 0 0 0 32.75 1L32.25 1A0.25 0.25 0 0 1 32 0.75L32 0.25A0.25 0.25 0 0 0 31.75 0L26.25 0A0.25 0.25 0 0 0 26 0.25L26 0.75A0.25 0.25 0 0 0 26.25 1L26.75 1A0.25 0.25 0 0 1 27 1.25L27 1.75A0.25 0.25 0 0 1 26.75 2L25.25 2A0.25 0.25 0 0 1 25 1.75L25 1.25A0.25 0.25 0 0 0 24.75 1L23.25 1A0.25 0.25 0 0 0 23 1.25L23 1.75A0.25 0.25 0 0 1 22.75 2L21.25 2A0.25 0.25 0 0 1 21 1.75L21 1.25A0.25 0.25 0 0 1 21.25 1L21.75 1A0.25 0.25 0 0 0 22 0.75L22 0.25A0.25 0.25 0 0 0 21.75 0L20.25 0A0.25 0.25 0 0 0 20 0.25L20 3.75A0.25 0.25 0 0 1 19.75 4L19.25 4A0.25 0.25 0 0 0 19 4.25L19 4.75A0.25 0.25 0 0 1 18.75 5L18.25 5A0.25 0.25 0 0 0 18 5.25L18 8.75A0.25 0.25 0 0 0 18.25 9L19.75 9A0.25 0.25 0 0 1 20 9.25L20 10.75A0.25 0.25 0 0 1 19.75 11L19.25 11A0.25 0.25 0 0 1 19 10.75L19 10.25A0.25 0.25 0 0 0 18.75 10L18.25 10A0.25 0.25 0 0 0 18 10.25L18 10.75A0.25 0.25 0 0 1 17.75 11L17.25 11A0.25 0.25 0 0 0 17 11.25L17 11.75A0.25 0.25 0 0 1 16.75 12L16.25 12A0.25 0.25 0 0 0 16 12.25L16 12.75A0.25 0.25 0 0 0 16.25 13L19.75 13A0.25 0.25 0 0 1 20 13.25L20 14.75A0.25 0.25 0 0 1 19.75 15L19.25 15A0.25 0.25 0 0 0 19 15.25L19 15.75A0.25 0.25 0 0 1 18.75 16L18.25 16A0.25 0.25 0 0 1 18 15.75L18 14.25A0.25 0.25 0 0 0 17.75 14L15.25 14A0.25 0.25 0 0 0 15 14.25L15 14.75A0.25 0.25 0 0 0 15.25 15L15.75 15A0.25 0.25 0 0 1 16 15.25L16 15.75A0.25 0.25 0 0 0 16.25 16L16.75 16A0.25 0.25 0 0 1 17 16.25L17 16.75A0.25 0.25 0 0 0 17.25 17L19.75 17A0.25 0.25 0 0 1 20 17.25L20 17.75A0.25 0.25 0 0 1 19.75 18L18.25 18A0.25 0.25 0 0 0 18 18.25L18 19.75A0.25 0.25 0 0 1 17.75 20L16.25 20A0.25 0.25 0 0 0 16 20.25L16 20.75A0.25 0.25 0 0 1 15.75 21L15.25 21A0.25 0.25 0 0 1 15 20.75L15 20.25A0.25 0.25 0 0 0 14.75 20L14.25 20A0.25 0.25 0 0 0 14 20.25L14 20.75A0.25 0.25 0 0 1 13.75 21L12.25 21A0.25 0.25 0 0 1 12 20.75L12 20.25A0.25 0.25 0 0 1 12.25 20L12.75 20A0.25 0.25 0 0 0 13 19.75L13 19.25A0.25 0.25 0 0 0 12.75 19L11.25 19A0.25 0.25 0 0 0 11 19.25L11 21.75A0.25 0.25 0 0 0 11.25 22L11.75 22A0.25 0.25 0 0 1 12 22.25L12 22.75A0.25 0.25 0 0 0 12.25 23L13.75 23A0.25 0.25 0 0 1 14 23.25L14 23.75A0.25 0.25 0 0 0 14.25 24L14.75 24A0.25 0.25 0 0 0 15 23.75L15 23.25A0.25 0.25 0 0 1 15.25 23L15.75 23A0.25 0.25 0 0 0 16 22.75L16 21.25A0.25 0.25 0 0 1 16.25 21L16.75 21A0.25 0.25 0 0 1 17 21.25L17 21.75A0.25 0.25 0 0 0 17.25 22L17.75 22A0.25 0.25 0 0 0 18 21.75L18 21.25A0.25 0.25 0 0 1 18.25 21L18.75 21A0.25 0.25 0 0 1 19 21.25L19 21.75A0.25 0.25 0 0 0 19.25 22L19.75 22A0.25 0.25 0 0 1 20 22.25L20 24.75A0.25 0.25 0 0 0 20.25 25L21.75 25A0.25 0.25 0 0 1 22 25.25L22 25.75A0.25 0.25 0 0 1 21.75 26L20.25 26A0.25 0.25 0 0 0 20 26.25L20 26.75A0.25 0.25 0 0 0 20.25 27L21.75 27A0.25 0.25 0 0 1 22 27.25L22 27.75A0.25 0.25 0 0 1 21.75 28L18.25 28A0.25 0.25 0 0 1 18 27.75L18 27.25A0.25 0.25 0 0 0 17.75 27L17.25 27A0.25 0.25 0 0 1 17 26.75L17 26.25A0.25 0.25 0 0 0 16.75 26L15.25 26A0.25 0.25 0 0 1 15 25.75L15 25.25A0.25 0.25 0 0 0 14.75 25L13.25 25A0.25 0.25 0 0 1 13 24.75L13 24.25A0.25 0.25 0 0 0 12.75 24L11.25 24A0.25 0.25 0 0 1 11 23.75L11 23.25A0.25 0.25 0 0 0 10.75 23L10.25 23A0.25 0.25 0 0 1 10 22.75L10 22.25A0.25 0.25 0 0 0 9.75 22L9.25 22A0.25 0.25 0 0 1 9 21.75L9 20.25A0.25 0.25 0 0 1 9.25 20L9.75 20A0.25 0.25 0 0 0 10 19.75L10 19.25A0.25 0.25 0 0 0 9.75 19L9.25 19A0.25 0.25 0 0 1 9 18.75L9 17.25A0.25 0.25 0 0 0 8.75 17L8.25 17A0.25 0.25 0 0 0 8 17.25L8 17.75A0.25 0.25 0 0 1 7.75 18L6.25 18A0.25 0.25 0 0 1 6 17.75L6 17.25A0.25 0.25 0 0 1 6.25 17L6.75 17A0.25 0.25 0 0 0 7 16.75L7 16.25A0.25 0.25 0 0 1 7.25 16L7.75 16A0.25 0.25 0 0 0 8 15.75L8 15.25A0.25 0.25 0 0 1 8.25 15L9.75 15A0.25 0.25 0 0 1 10 15.25L10 17.75A0.25 0.25 0 0 0 10.25 18L10.75 18A0.25 0.25 0 0 0 11 17.75L11 15.25A0.25 0.25 0 0 0 10.75 15L10.25 15A0.25 0.25 0 0 1 10 14.75L10 14.25A0.25 0.25 0 0 1 10.25 14L10.75 14A0.25 0.25 0 0 0 11 13.75L11 12.25A0.25 0.25 0 0 0 10.75 12L10.25 12A0.25 0.25 0 0 0 10 12.25L10 12.75A0.25 0.25 0 0 1 9.75 13L9.25 13A0.25 0.25 0 0 0 9 13.25L9 13.75A0.25 0.25 0 0 1 8.75 14L5.25 14A0.25 0.25 0 0 0 5 14.25L5 14.75A0.25 0.25 0 0 0 5.25 15L6.75 15A0.25 0.25 0 0 1 7 15.25L7 15.75A0.25 0.25 0 0 1 6.75 16L6.25 16A0.25 0.25 0 0 0 6 16.25L6 16.75A0.25 0.25 0 0 1 5.75 17L5.25 17A0.25 0.25 0 0 1 5 16.75L5 16.25A0.25 0.25 0 0 0 4.75 16L4.25 16A0.25 0.25 0 0 1 4 15.75L4 15.25A0.25 0.25 0 0 0 3.75 15L3.25 15A0.25 0.25 0 0 1 3 14.75L3 14.25A0.25 0.25 0 0 1 3.25 14L3.75 14A0.25 0.25 0 0 0 4 13.75L4 12.25A0.25 0.25 0 0 1 4.25 12L5.75 12A0.25 0.25 0 0 1 6 12.25L6 12.75A0.25 0.25 0 0 0 6.25 13L6.75 13A0.25 0.25 0 0 0 7 12.75L7 12.25A0.25 0.25 0 0 1 7.25 12L7.75 12A0.25 0.25 0 0 0 8 11.75L8 11.25A0.25 0.25 0 0 1 8.25 11L8.75 11A0.25 0.25 0 0 0 9 10.75L9 10.25A0.25 0.25 0 0 1 9.25 10L9.75 10A0.25 0.25 0 0 1 10 10.25L10 10.75A0.25 0.25 0 0 0 10.25 11L11.75 11A0.25 0.25 0 0 1 12 11.25L12 13.75A0.25 0.25 0 0 0 12.25 14L12.75 14A0.25 0.25 0 0 0 13 13.75L13 12.25A0.25 0.25 0 0 1 13.25 12L13.75 12A0.25 0.25 0 0 1 14 12.25L14 12.75A0.25 0.25 0 0 0 14.25 13L14.75 13A0.25 0.25 0 0 0 15 12.75L15 12.25A0.25 0.25 0 0 0 14.75 12L14.25 12A0.25 0.25 0 0 1 14 11.75L14 11.25A0.25 0.25 0 0 1 14.25 11L15.75 11A0.25 0.25 0 0 0 16 10.75L16 10.25A0.25 0.25 0 0 1 16.25 10L16.75 10A0.25 0.25 0 0 0 17 9.75L17 9.25A0.25 0.25 0 0 0 16.75 9L13.25 9A0.25 0.25 0 0 0 13 9.25L13 9.75A0.25 0.25 0 0 1 12.75 10L12.25 10A0.25 0.25 0 0 1 12 9.75L12 9.25A0.25 0.25 0 0 0 11.75 9L10.25 9A0.25 0.25 0 0 1 10 8.75L10 7.25A0.25 0.25 0 0 1 10.25 7L10.75 7A0.25 0.25 0 0 1 11 7.25L11 7.75A0.25 0.25 0 0 0 11.25 8L12.75 8A0.25 0.25 0 0 0 13 7.75L13 5.25A0.25 0.25 0 0 1 13.25 5L13.75 5A0.25 0.25 0 0 0 14 4.75L14 3.25A0.25 0.25 0 0 1 14.25 3L17.75 3A0.25 0.25 0 0 0 18 2.75L18 2.25A0.25 0.25 0 0 1 18.25 2L18.75 2A0.25 0.25 0 0 0 19 1.75L19 1.25A0.25 0.25 0 0 0 18.75 1L18.25 1A0.25 0.25 0 0 0 18 1.25L18 1.75A0.25 0.25 0 0 1 17.75 2L16.25 2A0.25 0.25 0 0 1 16 1.75L16 1.25A0.25 0.25 0 0 0 15.75 1L15.25 1A0.25 0.25 0 0 1 15 0.75L15 0.25A0.25 0.25 0 0 0 14.75 0L14.25 0A0.25 0.25 0 0 0 14 0.25L14 0.75A0.25 0.25 0 0 1 13.75 1L13.25 1A0.25 0.25 0 0 1 13 0.75L13 0.25A0.25 0.25 0 0 0 12.75 0L12.25 0A0.25 0.25 0 0 0 12 0.25L12 0.75A0.25 0.25 0 0 1 11.75 1L11.25 1A0.25 0.25 0 0 1 11 0.75L11 0.25A0.25 0.25 0 0 0 10.75 0L10.25 0A0.25 0.25 0 0 0 10 0.25L10 0.75A0.25 0.25 0 0 1 9.75 1L9.25 1A0.25 0.25 0 0 1 9 0.75L9 0.25A0.25 0.25 0 0 0 8.75 0L8.25 0A0.25 0.25 0 0 0 8 0.25ZM29 1.25L29 1.75A0.25 0.25 0 0 1 28.75 2L28.25 2A0.25 0.25 0 0 0 28 2.25L28 2.75A0.25 0.25 0 0 0 28.25 3L28.75 3A0.25 0.25 0 0 0 29 2.75L29 2.25A0.25 0.25 0 0 1 29.25 2L29.75 2A0.25 0.25 0 0 1 30 2.25L30 3.75A0.25 0.25 0 0 0 30.25 4L32.75 4A0.25 0.25 0 0 0 33 3.75L33 3.25A0.25 0.25 0 0 0 32.75 3L32.25 3A0.25 0.25 0 0 1 32 2.75L32 1.25A0.25 0.25 0 0 0 31.75 1L29.25 1A0.25 0.25 0 0 0 29 1.25ZM9 2.25L9 2.75A0.25 0.25 0 0 0 9.25 3L10.75 3A0.25 0.25 0 0 1 11 3.25L11 3.75A0.25 0.25 0 0 0 11.25 4L11.75 4A0.25 0.25 0 0 1 12 4.25L12 4.75A0.25 0.25 0 0 0 12.25 5L12.75 5A0.25 0.25 0 0 0 13 4.75L13 4.25A0.25 0.25 0 0 0 12.75 4L12.25 4A0.25 0.25 0 0 1 12 3.75L12 3.25A0.25 0.25 0 0 0 11.75 3L11.25 3A0.25 0.25 0 0 1 11 2.75L11 2.25A0.25 0.25 0 0 0 10.75 2L9.25 2A0.25 0.25 0 0 0 9 2.25ZM13 2.25L13 2.75A0.25 0.25 0 0 0 13.25 3L13.75 3A0.25 0.25 0 0 0 14 2.75L14 2.25A0.25 0.25 0 0 0 13.75 2L13.25 2A0.25 0.25 0 0 0 13 2.25ZM23 2.25L23 2.75A0.25 0.25 0 0 1 22.75 3L22.25 3A0.25 0.25 0 0 0 22 3.25L22 3.75A0.25 0.25 0 0 0 22.25 4L22.75 4A0.25 0.25 0 0 0 23 3.75L23 3.25A0.25 0.25 0 0 1 23.25 3L23.75 3A0.25 0.25 0 0 1 24 3.25L24 3.75A0.25 0.25 0 0 0 24.25 4L25.75 4A0.25 0.25 0 0 0 26 3.75L26 3.25A0.25 0.25 0 0 0 25.75 3L24.25 3A0.25 0.25 0 0 1 24 2.75L24 2.25A0.25 0.25 0 0 0 23.75 2L23.25 2A0.25 0.25 0 0 0 23 2.25ZM15 4.25L15 4.75A0.25 0.25 0 0 0 15.25 5L15.75 5A0.25 0.25 0 0 0 16 4.75L16 4.25A0.25 0.25 0 0 0 15.75 4L15.25 4A0.25 0.25 0 0 0 15 4.25ZM27 4.25L27 4.75A0.25 0.25 0 0 1 26.75 5L26.25 5A0.25 0.25 0 0 0 26 5.25L26 5.75A0.25 0.25 0 0 1 25.75 6L25.25 6A0.25 0.25 0 0 0 25 6.25L25 8.75A0.25 0.25 0 0 1 24.75 9L23.25 9A0.25 0.25 0 0 0 23 9.25L23 10.75A0.25 0.25 0 0 0 23.25 11L24.75 11A0.25 0.25 0 0 1 25 11.25L25 11.75A0.25 0.25 0 0 1 24.75 12L24.25 12A0.25 0.25 0 0 0 24 12.25L24 12.75A0.25 0.25 0 0 1 23.75 13L22.25 13A0.25 0.25 0 0 1 22 12.75L22 11.25A0.25 0.25 0 0 0 21.75 11L20.25 11A0.25 0.25 0 0 0 20 11.25L20 11.75A0.25 0.25 0 0 0 20.25 12L20.75 12A0.25 0.25 0 0 1 21 12.25L21 13.75A0.25 0.25 0 0 0 21.25 14L22.75 14A0.25 0.25 0 0 1 23 14.25L23 14.75A0.25 0.25 0 0 0 23.25 15L23.75 15A0.25 0.25 0 0 1 24 15.25L24 15.75A0.25 0.25 0 0 1 23.75 16L23.25 16A0.25 0.25 0 0 0 23 16.25L23 17.75A0.25 0.25 0 0 1 22.75 18L21.25 18A0.25 0.25 0 0 0 21 18.25L21 18.75A0.25 0.25 0 0 1 20.75 19L20.25 19A0.25 0.25 0 0 0 20 19.25L20 19.75A0.25 0.25 0 0 1 19.75 20L19.25 20A0.25 0.25 0 0 0 19 20.25L19 20.75A0.25 0.25 0 0 0 19.25 21L19.75 21A0.25 0.25 0 0 0 20 20.75L20 20.25A0.25 0.25 0 0 1 20.25 20L21.75 20A0.25 0.25 0 0 0 22 19.75L22 19.25A0.25 0.25 0 0 1 22.25 19L22.75 19A0.25 0.25 0 0 1 23 19.25L23 19.75A0.25 0.25 0 0 0 23.25 20L24.75 20A0.25 0.25 0 0 0 25 19.75L25 19.25A0.25 0.25 0 0 1 25.25 19L25.75 19A0.25 0.25 0 0 0 26 18.75L26 18.25A0.25 0.25 0 0 0 25.75 18L25.25 18A0.25 0.25 0 0 1 25 17.75L25 17.25A0.25 0.25 0 0 1 25.25 17L25.75 17A0.25 0.25 0 0 0 26 16.75L26 16.25A0.25 0.25 0 0 1 26.25 16L26.75 16A0.25 0.25 0 0 0 27 15.75L27 15.25A0.25 0.25 0 0 1 27.25 15L27.75 15A0.25 0.25 0 0 1 28 15.25L28 16.75A0.25 0.25 0 0 1 27.75 17L27.25 17A0.25 0.25 0 0 0 27 17.25L27 17.75A0.25 0.25 0 0 0 27.25 18L28.75 18A0.25 0.25 0 0 1 29 18.25L29 18.75A0.25 0.25 0 0 1 28.75 19L27.25 19A0.25 0.25 0 0 0 27 19.25L27 19.75A0.25 0.25 0 0 0 27.25 20L27.75 20A0.25 0.25 0 0 1 28 20.25L28 21.75A0.25 0.25 0 0 1 27.75 22L27.25 22A0.25 0.25 0 0 0 27 22.25L27 22.75A0.25 0.25 0 0 1 26.75 23L26.25 23A0.25 0.25 0 0 1 26 22.75L26 21.25A0.25 0.25 0 0 0 25.75 21L25.25 21A0.25 0.25 0 0 0 25 21.25L25 23.75A0.25 0.25 0 0 0 25.25 24L26.75 24A0.25 0.25 0 0 1 27 24.25L27 27.75A0.25 0.25 0 0 1 26.75 28L25.25 28A0.25 0.25 0 0 1 25 27.75L25 27.25A0.25 0.25 0 0 0 24.75 27L24.25 27A0.25 0.25 0 0 0 24 27.25L24 27.75A0.25 0.25 0 0 1 23.75 28L22.25 28A0.25 0.25 0 0 0 22 28.25L22 28.75A0.25 0.25 0 0 0 22.25 29L22.75 29A0.25 0.25 0 0 1 23 29.25L23 29.75A0.25 0.25 0 0 0 23.25 30L24.75 30A0.25 0.25 0 0 1 25 30.25L25 30.75A0.25 0.25 0 0 1 24.75 31L21.25 31A0.25 0.25 0 0 0 21 31.25L21 31.75A0.25 0.25 0 0 0 21.25 32L21.75 32A0.25 0.25 0 0 1 22 32.25L22 32.75A0.25 0.25 0 0 1 21.75 33L20.25 33A0.25 0.25 0 0 1 20 32.75L20 30.25A0.25 0.25 0 0 1 20.25 30L20.75 30A0.25 0.25 0 0 0 21 29.75L21 29.25A0.25 0.25 0 0 0 20.75 29L16.25 29A0.25 0.25 0 0 1 16 28.75L16 28.25A0.25 0.25 0 0 1 16.25 28L16.75 28A0.25 0.25 0 0 0 17 27.75L17 27.25A0.25 0.25 0 0 0 16.75 27L16.25 27A0.25 0.25 0 0 0 16 27.25L16 27.75A0.25 0.25 0 0 1 15.75 28L15.25 28A0.25 0.25 0 0 1 15 27.75L15 26.25A0.25 0.25 0 0 0 14.75 26L14.25 26A0.25 0.25 0 0 0 14 26.25L14 27.75A0.25 0.25 0 0 0 14.25 28L14.75 28A0.25 0.25 0 0 1 15 28.25L15 28.75A0.25 0.25 0 0 1 14.75 29L14.25 29A0.25 0.25 0 0 0 14 29.25L14 29.75A0.25 0.25 0 0 1 13.75 30L11.25 30A0.25 0.25 0 0 1 11 29.75L11 29.25A0.25 0.25 0 0 1 11.25 29L12.75 29A0.25 0.25 0 0 0 13 28.75L13 26.25A0.25 0.25 0 0 0 12.75 26L12.25 26A0.25 0.25 0 0 1 12 25.75L12 25.25A0.25 0.25 0 0 0 11.75 25L10.25 25A0.25 0.25 0 0 0 10 25.25L10 25.75A0.25 0.25 0 0 0 10.25 26L10.75 26A0.25 0.25 0 0 1 11 26.25L11 26.75A0.25 0.25 0 0 0 11.25 27L11.75 27A0.25 0.25 0 0 1 12 27.25L12 27.75A0.25 0.25 0 0 1 11.75 28L10.25 28A0.25 0.25 0 0 0 10 28.25L10 28.75A0.25 0.25 0 0 1 9.75 29L9.25 29A0.25 0.25 0 0 1 9 28.75L9 26.25A0.25 0.25 0 0 0 8.75 26L8.25 26A0.25 0.25 0 0 1 8 25.75L8 25.25A0.25 0.25 0 0 0 7.75 25L5.25 25A0.25 0.25 0 0 0 5 25.25L5 25.75A0.25 0.25 0 0 0 5.25 26L7.75 26A0.25 0.25 0 0 1 8 26.25L8 27.75A0.25 0.25 0 0 1 7.75 28L7.25 28A0.25 0.25 0 0 1 7 27.75L7 27.25A0.25 0.25 0 0 0 6.75 27L6.25 27A0.25 0.25 0 0 0 6 27.25L6 27.75A0.25 0.25 0 0 1 5.75 28L5.25 28A0.25 0.25 0 0 0 5 28.25L5 28.75A0.25 0.25 0 0 0 5.25 29L5.75 29A0.25 0.25 0 0 1 6 29.25L6 29.75A0.25 0.25 0 0 0 6.25 30L7.75 30A0.25 0.25 0 0 1 8 30.25L8 30.75A0.25 0.25 0 0 1 7.75 31L6.25 31A0.25 0.25 0 0 0 6 31.25L6 31.75A0.25 0.25 0 0 0 6.25 32L7.75 32A0.25 0.25 0 0 1 8 32.25L8 32.75A0.25 0.25 0 0 0 8.25 33L8.75 33A0.25 0.25 0 0 1 9 33.25L9 33.75A0.25 0.25 0 0 0 9.25 34L10.75 34A0.25 0.25 0 0 0 11 33.75L11 33.25A0.25 0.25 0 0 1 11.25 33L11.75 33A0.25 0.25 0 0 1 12 33.25L12 33.75A0.25 0.25 0 0 0 12.25 34L12.75 34A0.25 0.25 0 0 1 13 34.25L13 35.75A0.25 0.25 0 0 1 12.75 36L12.25 36A0.25 0.25 0 0 1 12 35.75L12 35.25A0.25 0.25 0 0 0 11.75 35L10.25 35A0.25 0.25 0 0 0 10 35.25L10 35.75A0.25 0.25 0 0 1 9.75 36L9.25 36A0.25 0.25 0 0 0 9 36.25L9 36.75A0.25 0.25 0 0 0 9.25 37L9.75 37A0.25 0.25 0 0 1 10 37.25L10 37.75A0.25 0.25 0 0 0 10.25 38L10.75 38A0.25 0.25 0 0 0 11 37.75L11 37.25A0.25 0.25 0 0 1 11.25 37L13.75 37A0.25 0.25 0 0 1 14 37.25L14 37.75A0.25 0.25 0 0 0 14.25 38L14.75 38A0.25 0.25 0 0 0 15 37.75L15 37.25A0.25 0.25 0 0 1 15.25 37L15.75 37A0.25 0.25 0 0 1 16 37.25L16 37.75A0.25 0.25 0 0 0 16.25 38L16.75 38A0.25 0.25 0 0 1 17 38.25L17 38.75A0.25 0.25 0 0 0 17.25 39L17.75 39A0.25 0.25 0 0 0 18 38.75L18 38.25A0.25 0.25 0 0 1 18.25 38L18.75 38A0.25 0.25 0 0 0 19 37.75L19 37.25A0.25 0.25 0 0 1 19.25 37L19.75 37A0.25 0.25 0 0 0 20 36.75L20 35.25A0.25 0.25 0 0 1 20.25 35L20.75 35A0.25 0.25 0 0 0 21 34.75L21 34.25A0.25 0.25 0 0 1 21.25 34L21.75 34A0.25 0.25 0 0 0 22 33.75L22 33.25A0.25 0.25 0 0 1 22.25 33L22.75 33A0.25 0.25 0 0 1 23 33.25L23 33.75A0.25 0.25 0 0 0 23.25 34L23.75 34A0.25 0.25 0 0 0 24 33.75L24 32.25A0.25 0.25 0 0 1 24.25 32L24.75 32A0.25 0.25 0 0 1 25 32.25L25 34.75A0.25 0.25 0 0 1 24.75 35L22.25 35A0.25 0.25 0 0 0 22 35.25L22 35.75A0.25 0.25 0 0 0 22.25 36L24.75 36A0.25 0.25 0 0 0 25 35.75L25 35.25A0.25 0.25 0 0 1 25.25 35L25.75 35A0.25 0.25 0 0 0 26 34.75L26 33.25A0.25 0.25 0 0 1 26.25 33L26.75 33A0.25 0.25 0 0 0 27 32.75L27 31.25A0.25 0.25 0 0 1 27.25 31L27.75 31A0.25 0.25 0 0 1 28 31.25L28 33.75A0.25 0.25 0 0 1 27.75 34L27.25 34A0.25 0.25 0 0 0 27 34.25L27 34.75A0.25 0.25 0 0 0 27.25 35L27.75 35A0.25 0.25 0 0 1 28 35.25L28 37.75A0.25 0.25 0 0 1 27.75 38L27.25 38A0.25 0.25 0 0 0 27 38.25L27 38.75A0.25 0.25 0 0 0 27.25 39L27.75 39A0.25 0.25 0 0 1 28 39.25L28 40.75A0.25 0.25 0 0 1 27.75 41L27.25 41A0.25 0.25 0 0 0 27 41.25L27 41.75A0.25 0.25 0 0 0 27.25 42L28.75 42A0.25 0.25 0 0 1 29 42.25L29 42.75A0.25 0.25 0 0 0 29.25 43L29.75 43A0.25 0.25 0 0 0 30 42.75L30 42.25A0.25 0.25 0 0 0 29.75 42L29.25 42A0.25 0.25 0 0 1 29 41.75L29 40.25A0.25 0.25 0 0 1 29.25 40L29.75 40A0.25 0.25 0 0 1 30 40.25L30 40.75A0.25 0.25 0 0 0 30.25 41L31.75 41A0.25 0.25 0 0 0 32 40.75L32 39.25A0.25 0.25 0 0 1 32.25 39L32.75 39A0.25 0.25 0 0 1 33 39.25L33 39.75A0.25 0.25 0 0 0 33.25 40L34.75 40A0.25 0.25 0 0 0 35 39.75L35 38.25A0.25 0.25 0 0 1 35.25 38L35.75 38A0.25 0.25 0 0 0 36 37.75L36 35.25A0.25 0.25 0 0 0 35.75 35L35.25 35A0.25 0.25 0 0 1 35 34.75L35 33.25A0.25 0.25 0 0 1 35.25 33L36.75 33A0.25 0.25 0 0 1 37 33.25L37 33.75A0.25 0.25 0 0 0 37.25 34L37.75 34A0.25 0.25 0 0 1 38 34.25L38 34.75A0.25 0.25 0 0 1 37.75 35L37.25 35A0.25 0.25 0 0 0 37 35.25L37 35.75A0.25 0.25 0 0 0 37.25 36L37.75 36A0.25 0.25 0 0 0 38 35.75L38 35.25A0.25 0.25 0 0 1 38.25 35L38.75 35A0.25 0.25 0 0 0 39 34.75L39 34.25A0.25 0.25 0 0 0 38.75 34L38.25 34A0.25 0.25 0 0 1 38 33.75L38 33.25A0.25 0.25 0 0 0 37.75 33L37.25 33A0.25 0.25 0 0 1 37 32.75L37 32.25A0.25 0.25 0 0 1 37.25 32L37.75 32A0.25 0.25 0 0 0 38 31.75L38 31.25A0.25 0.25 0 0 1 38.25 31L38.75 31A0.25 0.25 0 0 0 39 30.75L39 30.25A0.25 0.25 0 0 0 38.75 30L38.25 30A0.25 0.25 0 0 1 38 29.75L38 29.25A0.25 0.25 0 0 0 37.75 29L36.25 29A0.25 0.25 0 0 1 36 28.75L36 28.25A0.25 0.25 0 0 1 36.25 28L37.75 28A0.25 0.25 0 0 0 38 27.75L38 27.25A0.25 0.25 0 0 1 38.25 27L38.75 27A0.25 0.25 0 0 0 39 26.75L39 26.25A0.25 0.25 0 0 0 38.75 26L38.25 26A0.25 0.25 0 0 0 38 26.25L38 26.75A0.25 0.25 0 0 1 37.75 27L37.25 27A0.25 0.25 0 0 1 37 26.75L37 25.25A0.25 0.25 0 0 0 36.75 25L35.25 25A0.25 0.25 0 0 1 35 24.75L35 24.25A0.25 0.25 0 0 0 34.75 24L33.25 24A0.25 0.25 0 0 0 33 24.25L33 24.75A0.25 0.25 0 0 1 32.75 25L32.25 25A0.25 0.25 0 0 0 32 25.25L32 25.75A0.25 0.25 0 0 1 31.75 26L31.25 26A0.25 0.25 0 0 0 31 26.25L31 28.75A0.25 0.25 0 0 0 31.25 29L31.75 29A0.25 0.25 0 0 0 32 28.75L32 27.25A0.25 0.25 0 0 1 32.25 27L32.75 27A0.25 0.25 0 0 1 33 27.25L33 27.75A0.25 0.25 0 0 0 33.25 28L34.75 28A0.25 0.25 0 0 1 35 28.25L35 28.75A0.25 0.25 0 0 1 34.75 29L34.25 29A0.25 0.25 0 0 0 34 29.25L34 29.75A0.25 0.25 0 0 1 33.75 30L31.25 30A0.25 0.25 0 0 0 31 30.25L31 30.75A0.25 0.25 0 0 1 30.75 31L30.25 31A0.25 0.25 0 0 0 30 31.25L30 31.75A0.25 0.25 0 0 1 29.75 32L29.25 32A0.25 0.25 0 0 1 29 31.75L29 30.25A0.25 0.25 0 0 0 28.75 30L27.25 30A0.25 0.25 0 0 0 27 30.25L27 30.75A0.25 0.25 0 0 1 26.75 31L26.25 31A0.25 0.25 0 0 1 26 30.75L26 29.25A0.25 0.25 0 0 1 26.25 29L26.75 29A0.25 0.25 0 0 0 27 28.75L27 28.25A0.25 0.25 0 0 1 27.25 28L27.75 28A0.25 0.25 0 0 1 28 28.25L28 28.75A0.25 0.25 0 0 0 28.25 29L29.75 29A0.25 0.25 0 0 0 30 28.75L30 27.25A0.25 0.25 0 0 0 29.75 27L29.25 27A0.25 0.25 0 0 1 29 26.75L29 26.25A0.25 0.25 0 0 1 29.25 26L29.75 26A0.25 0.25 0 0 0 30 25.75L30 25.25A0.25 0.25 0 0 0 29.75 25L29.25 25A0.25 0.25 0 0 1 29 24.75L29 23.25A0.25 0.25 0 0 0 28.75 23L28.25 23A0.25 0.25 0 0 1 28 22.75L28 22.25A0.25 0.25 0 0 1 28.25 22L28.75 22A0.25 0.25 0 0 0 29 21.75L29 20.25A0.25 0.25 0 0 1 29.25 20L30.75 20A0.25 0.25 0 0 1 31 20.25L31 23.75A0.25 0.25 0 0 0 31.25 24L31.75 24A0.25 0.25 0 0 0 32 23.75L32 23.25A0.25 0.25 0 0 1 32.25 23L32.75 23A0.25 0.25 0 0 0 33 22.75L33 22.25A0.25 0.25 0 0 0 32.75 22L32.25 22A0.25 0.25 0 0 1 32 21.75L32 19.25A0.25 0.25 0 0 0 31.75 19L30.25 19A0.25 0.25 0 0 1 30 18.75L30 18.25A0.25 0.25 0 0 0 29.75 18L29.25 18A0.25 0.25 0 0 1 29 17.75L29 17.25A0.25 0.25 0 0 1 29.25 17L30.75 17A0.25 0.25 0 0 0 31 16.75L31 16.25A0.25 0.25 0 0 1 31.25 16L31.75 16A0.25 0.25 0 0 0 32 15.75L32 15.25A0.25 0.25 0 0 0 31.75 15L30.25 15A0.25 0.25 0 0 1 30 14.75L30 14.25A0.25 0.25 0 0 0 29.75 14L29.25 14A0.25 0.25 0 0 1 29 13.75L29 13.25A0.25 0.25 0 0 1 29.25 13L31.75 13A0.25 0.25 0 0 1 32 13.25L32 13.75A0.25 0.25 0 0 0 32.25 14L32.75 14A0.25 0.25 0 0 1 33 14.25L33 16.75A0.25 0.25 0 0 1 32.75 17L32.25 17A0.25 0.25 0 0 0 32 17.25L32 17.75A0.25 0.25 0 0 0 32.25 18L33.75 18A0.25 0.25 0 0 1 34 18.25L34 18.75A0.25 0.25 0 0 0 34.25 19L34.75 19A0.25 0.25 0 0 0 35 18.75L35 16.25A0.25 0.25 0 0 1 35.25 16L35.75 16A0.25 0.25 0 0 1 36 16.25L36 16.75A0.25 0.25 0 0 0 36.25 17L36.75 17A0.25 0.25 0 0 1 37 17.25L37 17.75A0.25 0.25 0 0 1 36.75 18L36.25 18A0.25 0.25 0 0 0 36 18.25L36 19.75A0.25 0.25 0 0 1 35.75 20L35.25 20A0.25 0.25 0 0 0 35 20.25L35 20.75A0.25 0.25 0 0 1 34.75 21L34.25 21A0.25 0.25 0 0 1 34 20.75L34 20.25A0.25 0.25 0 0 0 33.75 20L33.25 20A0.25 0.25 0 0 0 33 20.25L33 20.75A0.25 0.25 0 0 0 33.25 21L33.75 21A0.25 0.25 0 0 1 34 21.25L34 22.75A0.25 0.25 0 0 0 34.25 23L35.75 23A0.25 0.25 0 0 0 36 22.75L36 22.25A0.25 0.25 0 0 0 35.75 22L35.25 22A0.25 0.25 0 0 1 35 21.75L35 21.25A0.25 0.25 0 0 1 35.25 21L35.75 21A0.25 0.25 0 0 0 36 20.75L36 20.25A0.25 0.25 0 0 1 36.25 20L36.75 20A0.25 0.25 0 0 0 37 19.75L37 19.25A0.25 0.25 0 0 1 37.25 19L37.75 19A0.25 0.25 0 0 0 38 18.75L38 17.25A0.25 0.25 0 0 1 38.25 17L38.75 17A0.25 0.25 0 0 1 39 17.25L39 17.75A0.25 0.25 0 0 0 39.25 18L40.75 18A0.25 0.25 0 0 1 41 18.25L41 20.75A0.25 0.25 0 0 0 41.25 21L43.75 21A0.25 0.25 0 0 0 44 20.75L44 20.25A0.25 0.25 0 0 0 43.75 20L43.25 20A0.25 0.25 0 0 1 43 19.75L43 18.25A0.25 0.25 0 0 0 42.75 18L41.25 18A0.25 0.25 0 0 1 41 17.75L41 16.25A0.25 0.25 0 0 1 41.25 16L41.75 16A0.25 0.25 0 0 1 42 16.25L42 16.75A0.25 0.25 0 0 0 42.25 17L43.75 17A0.25 0.25 0 0 0 44 16.75L44 15.25A0.25 0.25 0 0 0 43.75 15L43.25 15A0.25 0.25 0 0 1 43 14.75L43 14.25A0.25 0.25 0 0 0 42.75 14L41.25 14A0.25 0.25 0 0 0 41 14.25L41 14.75A0.25 0.25 0 0 1 40.75 15L40.25 15A0.25 0.25 0 0 0 40 15.25L40 16.75A0.25 0.25 0 0 1 39.75 17L39.25 17A0.25 0.25 0 0 1 39 16.75L39 15.25A0.25 0.25 0 0 0 38.75 15L38.25 15A0.25 0.25 0 0 1 38 14.75L38 12.25A0.25 0.25 0 0 1 38.25 12L38.75 12A0.25 0.25 0 0 0 39 11.75L39 11.25A0.25 0.25 0 0 0 38.75 11L36.25 11A0.25 0.25 0 0 0 36 11.25L36 11.75A0.25 0.25 0 0 1 35.75 12L33.25 12A0.25 0.25 0 0 0 33 12.25L33 12.75A0.25 0.25 0 0 1 32.75 13L32.25 13A0.25 0.25 0 0 1 32 12.75L32 11.25A0.25 0.25 0 0 1 32.25 11L32.75 11A0.25 0.25 0 0 0 33 10.75L33 10.25A0.25 0.25 0 0 0 32.75 10L31.25 10A0.25 0.25 0 0 0 31 10.25L31 10.75A0.25 0.25 0 0 1 30.75 11L30.25 11A0.25 0.25 0 0 1 30 10.75L30 10.25A0.25 0.25 0 0 0 29.75 10L28.25 10A0.25 0.25 0 0 1 28 9.75L28 9.25A0.25 0.25 0 0 1 28.25 9L28.75 9A0.25 0.25 0 0 0 29 8.75L29 8.25A0.25 0.25 0 0 1 29.25 8L30.75 8A0.25 0.25 0 0 1 31 8.25L31 8.75A0.25 0.25 0 0 0 31.25 9L31.75 9A0.25 0.25 0 0 0 32 8.75L32 8.25A0.25 0.25 0 0 0 31.75 8L31.25 8A0.25 0.25 0 0 1 31 7.75L31 7.25A0.25 0.25 0 0 1 31.25 7L31.75 7A0.25 0.25 0 0 0 32 6.75L32 5.25A0.25 0.25 0 0 0 31.75 5L29.25 5A0.25 0.25 0 0 1 29 4.75L29 4.25A0.25 0.25 0 0 0 28.75 4L27.25 4A0.25 0.25 0 0 0 27 4.25ZM21 5.25L21 7.75A0.25 0.25 0 0 0 21.25 8L23.75 8A0.25 0.25 0 0 0 24 7.75L24 5.25A0.25 0.25 0 0 0 23.75 5L21.25 5A0.25 0.25 0 0 0 21 5.25ZM28 5.25L28 6.75A0.25 0.25 0 0 1 27.75 7L27.25 7A0.25 0.25 0 0 1 27 6.75L27 6.25A0.25 0.25 0 0 0 26.75 6L26.25 6A0.25 0.25 0 0 0 26 6.25L26 6.75A0.25 0.25 0 0 0 26.25 7L26.75 7A0.25 0.25 0 0 1 27 7.25L27 8.75A0.25 0.25 0 0 1 26.75 9L26.25 9A0.25 0.25 0 0 0 26 9.25L26 10.75A0.25 0.25 0 0 0 26.25 11L26.75 11A0.25 0.25 0 0 1 27 11.25L27 11.75A0.25 0.25 0 0 1 26.75 12L25.25 12A0.25 0.25 0 0 0 25 12.25L25 12.75A0.25 0.25 0 0 0 25.25 13L25.75 13A0.25 0.25 0 0 1 26 13.25L26 13.75A0.25 0.25 0 0 0 26.25 14L26.75 14A0.25 0.25 0 0 0 27 13.75L27 13.25A0.25 0.25 0 0 1 27.25 13L27.75 13A0.25 0.25 0 0 0 28 12.75L28 11.25A0.25 0.25 0 0 0 27.75 11L27.25 11A0.25 0.25 0 0 1 27 10.75L27 9.25A0.25 0.25 0 0 1 27.25 9L27.75 9A0.25 0.25 0 0 0 28 8.75L28 7.25A0.25 0.25 0 0 1 28.25 7L28.75 7A0.25 0.25 0 0 0 29 6.75L29 5.25A0.25 0.25 0 0 0 28.75 5L28.25 5A0.25 0.25 0 0 0 28 5.25ZM9 6.25L9 6.75A0.25 0.25 0 0 0 9.25 7L9.75 7A0.25 0.25 0 0 0 10 6.75L10 6.25A0.25 0.25 0 0 0 9.75 6L9.25 6A0.25 0.25 0 0 0 9 6.25ZM11 6.25L11 6.75A0.25 0.25 0 0 0 11.25 7L11.75 7A0.25 0.25 0 0 0 12 6.75L12 6.25A0.25 0.25 0 0 0 11.75 6L11.25 6A0.25 0.25 0 0 0 11 6.25ZM14 6.25L14 7.75A0.25 0.25 0 0 0 14.25 8L16.75 8A0.25 0.25 0 0 0 17 7.75L17 6.25A0.25 0.25 0 0 0 16.75 6L16.25 6A0.25 0.25 0 0 0 16 6.25L16 6.75A0.25 0.25 0 0 1 15.75 7L15.25 7A0.25 0.25 0 0 1 15 6.75L15 6.25A0.25 0.25 0 0 0 14.75 6L14.25 6A0.25 0.25 0 0 0 14 6.25ZM19 6.25L19 6.75A0.25 0.25 0 0 0 19.25 7L19.75 7A0.25 0.25 0 0 0 20 6.75L20 6.25A0.25 0.25 0 0 0 19.75 6L19.25 6A0.25 0.25 0 0 0 19 6.25ZM22 6.25L22 6.75A0.25 0.25 0 0 0 22.25 7L22.75 7A0.25 0.25 0 0 0 23 6.75L23 6.25A0.25 0.25 0 0 0 22.75 6L22.25 6A0.25 0.25 0 0 0 22 6.25ZM30 6.25L30 6.75A0.25 0.25 0 0 0 30.25 7L30.75 7A0.25 0.25 0 0 0 31 6.75L31 6.25A0.25 0.25 0 0 0 30.75 6L30.25 6A0.25 0.25 0 0 0 30 6.25ZM36 6.25L36 7.75A0.25 0.25 0 0 0 36.25 8L36.75 8A0.25 0.25 0 0 0 37 7.75L37 6.25A0.25 0.25 0 0 0 36.75 6L36.25 6A0.25 0.25 0 0 0 36 6.25ZM4 9.25L4 9.75A0.25 0.25 0 0 0 4.25 10L6.75 10A0.25 0.25 0 0 1 7 10.25L7 10.75A0.25 0.25 0 0 1 6.75 11L6.25 11A0.25 0.25 0 0 0 6 11.25L6 11.75A0.25 0.25 0 0 0 6.25 12L6.75 12A0.25 0.25 0 0 0 7 11.75L7 11.25A0.25 0.25 0 0 1 7.25 11L7.75 11A0.25 0.25 0 0 0 8 10.75L8 10.25A0.25 0.25 0 0 0 7.75 10L7.25 10A0.25 0.25 0 0 1 7 9.75L7 9.25A0.25 0.25 0 0 0 6.75 9L4.25 9A0.25 0.25 0 0 0 4 9.25ZM21 9.25L21 9.75A0.25 0.25 0 0 0 21.25 10L21.75 10A0.25 0.25 0 0 0 22 9.75L22 9.25A0.25 0.25 0 0 0 21.75 9L21.25 9A0.25 0.25 0 0 0 21 9.25ZM39 9.25L39 9.75A0.25 0.25 0 0 0 39.25 10L39.75 10A0.25 0.25 0 0 0 40 9.75L40 9.25A0.25 0.25 0 0 0 39.75 9L39.25 9A0.25 0.25 0 0 0 39 9.25ZM41 9.25L41 9.75A0.25 0.25 0 0 0 41.25 10L41.75 10A0.25 0.25 0 0 0 42 9.75L42 9.25A0.25 0.25 0 0 0 41.75 9L41.25 9A0.25 0.25 0 0 0 41 9.25ZM13 10.25L13 10.75A0.25 0.25 0 0 0 13.25 11L13.75 11A0.25 0.25 0 0 0 14 10.75L14 10.25A0.25 0.25 0 0 0 13.75 10L13.25 10A0.25 0.25 0 0 0 13 10.25ZM40 11.25L40 12.75A0.25 0.25 0 0 1 39.75 13L39.25 13A0.25 0.25 0 0 0 39 13.25L39 13.75A0.25 0.25 0 0 0 39.25 14L39.75 14A0.25 0.25 0 0 0 40 13.75L40 13.25A0.25 0.25 0 0 1 40.25 13L40.75 13A0.25 0.25 0 0 0 41 12.75L41 12.25A0.25 0.25 0 0 1 41.25 12L41.75 12A0.25 0.25 0 0 1 42 12.25L42 12.75A0.25 0.25 0 0 0 42.25 13L42.75 13A0.25 0.25 0 0 0 43 12.75L43 11.25A0.25 0.25 0 0 0 42.75 11L40.25 11A0.25 0.25 0 0 0 40 11.25ZM1 13.25L1 14.75A0.25 0.25 0 0 0 1.25 15L1.75 15A0.25 0.25 0 0 1 2 15.25L2 15.75A0.25 0.25 0 0 1 1.75 16L1.25 16A0.25 0.25 0 0 0 1 16.25L1 16.75A0.25 0.25 0 0 0 1.25 17L1.75 17A0.25 0.25 0 0 0 2 16.75L2 16.25A0.25 0.25 0 0 1 2.25 16L2.75 16A0.25 0.25 0 0 0 3 15.75L3 15.25A0.25 0.25 0 0 0 2.75 15L2.25 15A0.25 0.25 0 0 1 2 14.75L2 13.25A0.25 0.25 0 0 0 1.75 13L1.25 13A0.25 0.25 0 0 0 1 13.25ZM33 13.25L33 13.75A0.25 0.25 0 0 0 33.25 14L33.75 14A0.25 0.25 0 0 0 34 13.75L34 13.25A0.25 0.25 0 0 0 33.75 13L33.25 13A0.25 0.25 0 0 0 33 13.25ZM36 13.25L36 13.75A0.25 0.25 0 0 1 35.75 14L35.25 14A0.25 0.25 0 0 0 35 14.25L35 14.75A0.25 0.25 0 0 1 34.75 15L34.25 15A0.25 0.25 0 0 0 34 15.25L34 15.75A0.25 0.25 0 0 0 34.25 16L34.75 16A0.25 0.25 0 0 0 35 15.75L35 15.25A0.25 0.25 0 0 1 35.25 15L35.75 15A0.25 0.25 0 0 0 36 14.75L36 14.25A0.25 0.25 0 0 1 36.25 14L36.75 14A0.25 0.25 0 0 0 37 13.75L37 13.25A0.25 0.25 0 0 0 36.75 13L36.25 13A0.25 0.25 0 0 0 36 13.25ZM28 14.25L28 14.75A0.25 0.25 0 0 0 28.25 15L28.75 15A0.25 0.25 0 0 1 29 15.25L29 15.75A0.25 0.25 0 0 0 29.25 16L29.75 16A0.25 0.25 0 0 0 30 15.75L30 15.25A0.25 0.25 0 0 0 29.75 15L29.25 15A0.25 0.25 0 0 1 29 14.75L29 14.25A0.25 0.25 0 0 0 28.75 14L28.25 14A0.25 0.25 0 0 0 28 14.25ZM12 15.25L12 15.75A0.25 0.25 0 0 0 12.25 16L12.75 16A0.25 0.25 0 0 1 13 16.25L13 16.75A0.25 0.25 0 0 0 13.25 17L13.75 17A0.25 0.25 0 0 1 14 17.25L14 17.75A0.25 0.25 0 0 0 14.25 18L14.75 18A0.25 0.25 0 0 1 15 18.25L15 18.75A0.25 0.25 0 0 0 15.25 19L15.75 19A0.25 0.25 0 0 0 16 18.75L16 18.25A0.25 0.25 0 0 0 15.75 18L15.25 18A0.25 0.25 0 0 1 15 17.75L15 16.25A0.25 0.25 0 0 0 14.75 16L14.25 16A0.25 0.25 0 0 1 14 15.75L14 15.25A0.25 0.25 0 0 0 13.75 15L12.25 15A0.25 0.25 0 0 0 12 15.25ZM20 15.25L20 15.75A0.25 0.25 0 0 0 20.25 16L20.75 16A0.25 0.25 0 0 1 21 16.25L21 16.75A0.25 0.25 0 0 0 21.25 17L21.75 17A0.25 0.25 0 0 0 22 16.75L22 15.25A0.25 0.25 0 0 0 21.75 15L20.25 15A0.25 0.25 0 0 0 20 15.25ZM25 15.25L25 15.75A0.25 0.25 0 0 1 24.75 16L24.25 16A0.25 0.25 0 0 0 24 16.25L24 16.75A0.25 0.25 0 0 0 24.25 17L24.75 17A0.25 0.25 0 0 0 25 16.75L25 16.25A0.25 0.25 0 0 1 25.25 16L25.75 16A0.25 0.25 0 0 0 26 15.75L26 15.25A0.25 0.25 0 0 0 25.75 15L25.25 15A0.25 0.25 0 0 0 25 15.25ZM37 16.25L37 16.75A0.25 0.25 0 0 0 37.25 17L37.75 17A0.25 0.25 0 0 0 38 16.75L38 16.25A0.25 0.25 0 0 0 37.75 16L37.25 16A0.25 0.25 0 0 0 37 16.25ZM5 18.25L5 19.75A0.25 0.25 0 0 0 5.25 20L7.75 20A0.25 0.25 0 0 0 8 19.75L8 19.25A0.25 0.25 0 0 0 7.75 19L6.25 19A0.25 0.25 0 0 1 6 18.75L6 18.25A0.25 0.25 0 0 0 5.75 18L5.25 18A0.25 0.25 0 0 0 5 18.25ZM5 21.25L5 23.75A0.25 0.25 0 0 0 5.25 24L7.75 24A0.25 0.25 0 0 0 8 23.75L8 21.25A0.25 0.25 0 0 0 7.75 21L5.25 21A0.25 0.25 0 0 0 5 21.25ZM14 21.25L14 21.75A0.25 0.25 0 0 0 14.25 22L14.75 22A0.25 0.25 0 0 0 15 21.75L15 21.25A0.25 0.25 0 0 0 14.75 21L14.25 21A0.25 0.25 0 0 0 14 21.25ZM21 21.25L21 23.75A0.25 0.25 0 0 0 21.25 24L23.75 24A0.25 0.25 0 0 0 24 23.75L24 21.25A0.25 0.25 0 0 0 23.75 21L21.25 21A0.25 0.25 0 0 0 21 21.25ZM37 21.25L37 23.75A0.25 0.25 0 0 0 37.25 24L39.75 24A0.25 0.25 0 0 0 40 23.75L40 21.25A0.25 0.25 0 0 0 39.75 21L37.25 21A0.25 0.25 0 0 0 37 21.25ZM3 22.25L3 22.75A0.25 0.25 0 0 0 3.25 23L3.75 23A0.25 0.25 0 0 0 4 22.75L4 22.25A0.25 0.25 0 0 0 3.75 22L3.25 22A0.25 0.25 0 0 0 3 22.25ZM6 22.25L6 22.75A0.25 0.25 0 0 0 6.25 23L6.75 23A0.25 0.25 0 0 0 7 22.75L7 22.25A0.25 0.25 0 0 0 6.75 22L6.25 22A0.25 0.25 0 0 0 6 22.25ZM22 22.25L22 22.75A0.25 0.25 0 0 0 22.25 23L22.75 23A0.25 0.25 0 0 0 23 22.75L23 22.25A0.25 0.25 0 0 0 22.75 22L22.25 22A0.25 0.25 0 0 0 22 22.25ZM38 22.25L38 22.75A0.25 0.25 0 0 0 38.25 23L38.75 23A0.25 0.25 0 0 0 39 22.75L39 22.25A0.25 0.25 0 0 0 38.75 22L38.25 22A0.25 0.25 0 0 0 38 22.25ZM17 23.25L17 23.75A0.25 0.25 0 0 1 16.75 24L16.25 24A0.25 0.25 0 0 0 16 24.25L16 24.75A0.25 0.25 0 0 0 16.25 25L18.75 25A0.25 0.25 0 0 0 19 24.75L19 23.25A0.25 0.25 0 0 0 18.75 23L17.25 23A0.25 0.25 0 0 0 17 23.25ZM27 23.25L27 23.75A0.25 0.25 0 0 0 27.25 24L27.75 24A0.25 0.25 0 0 0 28 23.75L28 23.25A0.25 0.25 0 0 0 27.75 23L27.25 23A0.25 0.25 0 0 0 27 23.25ZM3 24.25L3 25.75A0.25 0.25 0 0 0 3.25 26L3.75 26A0.25 0.25 0 0 0 4 25.75L4 24.25A0.25 0.25 0 0 0 3.75 24L3.25 24A0.25 0.25 0 0 0 3 24.25ZM43 24.25L43 26.75A0.25 0.25 0 0 0 43.25 27L43.75 27A0.25 0.25 0 0 1 44 27.25L44 27.75A0.25 0.25 0 0 1 43.75 28L43.25 28A0.25 0.25 0 0 0 43 28.25L43 29.75A0.25 0.25 0 0 0 43.25 30L43.75 30A0.25 0.25 0 0 0 44 29.75L44 29.25A0.25 0.25 0 0 1 44.25 29L44.75 29A0.25 0.25 0 0 0 45 28.75L45 27.25A0.25 0.25 0 0 0 44.75 27L44.25 27A0.25 0.25 0 0 1 44 26.75L44 25.25A0.25 0.25 0 0 1 44.25 25L44.75 25A0.25 0.25 0 0 0 45 24.75L45 24.25A0.25 0.25 0 0 0 44.75 24L43.25 24A0.25 0.25 0 0 0 43 24.25ZM23 25.25L23 25.75A0.25 0.25 0 0 0 23.25 26L23.75 26A0.25 0.25 0 0 0 24 25.75L24 25.25A0.25 0.25 0 0 0 23.75 25L23.25 25A0.25 0.25 0 0 0 23 25.25ZM25 25.25L25 25.75A0.25 0.25 0 0 0 25.25 26L25.75 26A0.25 0.25 0 0 0 26 25.75L26 25.25A0.25 0.25 0 0 0 25.75 25L25.25 25A0.25 0.25 0 0 0 25 25.25ZM28 25.25L28 25.75A0.25 0.25 0 0 0 28.25 26L28.75 26A0.25 0.25 0 0 0 29 25.75L29 25.25A0.25 0.25 0 0 0 28.75 25L28.25 25A0.25 0.25 0 0 0 28 25.25ZM33 25.25L33 26.75A0.25 0.25 0 0 0 33.25 27L33.75 27A0.25 0.25 0 0 0 34 26.75L34 25.25A0.25 0.25 0 0 0 33.75 25L33.25 25A0.25 0.25 0 0 0 33 25.25ZM35 26.25L35 26.75A0.25 0.25 0 0 0 35.25 27L35.75 27A0.25 0.25 0 0 0 36 26.75L36 26.25A0.25 0.25 0 0 0 35.75 26L35.25 26A0.25 0.25 0 0 0 35 26.25ZM6 28.25L6 28.75A0.25 0.25 0 0 0 6.25 29L6.75 29A0.25 0.25 0 0 0 7 28.75L7 28.25A0.25 0.25 0 0 0 6.75 28L6.25 28A0.25 0.25 0 0 0 6 28.25ZM24 28.25L24 28.75A0.25 0.25 0 0 0 24.25 29L24.75 29A0.25 0.25 0 0 0 25 28.75L25 28.25A0.25 0.25 0 0 0 24.75 28L24.25 28A0.25 0.25 0 0 0 24 28.25ZM15 29.25L15 29.75A0.25 0.25 0 0 0 15.25 30L15.75 30A0.25 0.25 0 0 1 16 30.25L16 30.75A0.25 0.25 0 0 1 15.75 31L15.25 31A0.25 0.25 0 0 0 15 31.25L15 31.75A0.25 0.25 0 0 1 14.75 32L14.25 32A0.25 0.25 0 0 1 14 31.75L14 31.25A0.25 0.25 0 0 0 13.75 31L13.25 31A0.25 0.25 0 0 0 13 31.25L13 31.75A0.25 0.25 0 0 1 12.75 32L12.25 32A0.25 0.25 0 0 1 12 31.75L12 31.25A0.25 0.25 0 0 0 11.75 31L11.25 31A0.25 0.25 0 0 0 11 31.25L11 31.75A0.25 0.25 0 0 1 10.75 32L9.25 32A0.25 0.25 0 0 1 9 31.75L9 31.25A0.25 0.25 0 0 1 9.25 31L9.75 31A0.25 0.25 0 0 0 10 30.75L10 30.25A0.25 0.25 0 0 0 9.75 30L9.25 30A0.25 0.25 0 0 0 9 30.25L9 30.75A0.25 0.25 0 0 1 8.75 31L8.25 31A0.25 0.25 0 0 0 8 31.25L8 31.75A0.25 0.25 0 0 0 8.25 32L8.75 32A0.25 0.25 0 0 1 9 32.25L9 32.75A0.25 0.25 0 0 0 9.25 33L10.75 33A0.25 0.25 0 0 0 11 32.75L11 32.25A0.25 0.25 0 0 1 11.25 32L11.75 32A0.25 0.25 0 0 1 12 32.25L12 32.75A0.25 0.25 0 0 0 12.25 33L13.75 33A0.25 0.25 0 0 1 14 33.25L14 33.75A0.25 0.25 0 0 0 14.25 34L15.75 34A0.25 0.25 0 0 0 16 33.75L16 33.25A0.25 0.25 0 0 1 16.25 33L18.75 33A0.25 0.25 0 0 0 19 32.75L19 32.25A0.25 0.25 0 0 0 18.75 32L17.25 32A0.25 0.25 0 0 1 17 31.75L17 31.25A0.25 0.25 0 0 1 17.25 31L18.75 31A0.25 0.25 0 0 0 19 30.75L19 30.25A0.25 0.25 0 0 0 18.75 30L16.25 30A0.25 0.25 0 0 1 16 29.75L16 29.25A0.25 0.25 0 0 0 15.75 29L15.25 29A0.25 0.25 0 0 0 15 29.25ZM1 30.25L1 30.75A0.25 0.25 0 0 1 0.75 31L0.25 31A0.25 0.25 0 0 0 0 31.25L0 32.75A0.25 0.25 0 0 0 0.25 33L0.75 33A0.25 0.25 0 0 0 1 32.75L1 31.25A0.25 0.25 0 0 1 1.25 31L1.75 31A0.25 0.25 0 0 1 2 31.25L2 31.75A0.25 0.25 0 0 0 2.25 32L2.75 32A0.25 0.25 0 0 0 3 31.75L3 30.25A0.25 0.25 0 0 0 2.75 30L1.25 30A0.25 0.25 0 0 0 1 30.25ZM35 30.25L35 30.75A0.25 0.25 0 0 1 34.75 31L31.25 31A0.25 0.25 0 0 0 31 31.25L31 31.75A0.25 0.25 0 0 1 30.75 32L30.25 32A0.25 0.25 0 0 0 30 32.25L30 32.75A0.25 0.25 0 0 1 29.75 33L29.25 33A0.25 0.25 0 0 0 29 33.25L29 33.75A0.25 0.25 0 0 1 28.75 34L28.25 34A0.25 0.25 0 0 0 28 34.25L28 34.75A0.25 0.25 0 0 0 28.25 35L29.75 35A0.25 0.25 0 0 1 30 35.25L30 37.75A0.25 0.25 0 0 1 29.75 38L29.25 38A0.25 0.25 0 0 0 29 38.25L29 38.75A0.25 0.25 0 0 0 29.25 39L29.75 39A0.25 0.25 0 0 1 30 39.25L30 39.75A0.25 0.25 0 0 0 30.25 40L30.75 40A0.25 0.25 0 0 0 31 39.75L31 39.25A0.25 0.25 0 0 1 31.25 39L31.75 39A0.25 0.25 0 0 0 32 38.75L32 38.25A0.25 0.25 0 0 1 32.25 38L32.75 38A0.25 0.25 0 0 1 33 38.25L33 38.75A0.25 0.25 0 0 0 33.25 39L33.75 39A0.25 0.25 0 0 0 34 38.75L34 36.25A0.25 0.25 0 0 1 34.25 36L34.75 36A0.25 0.25 0 0 0 35 35.75L35 35.25A0.25 0.25 0 0 0 34.75 35L34.25 35A0.25 0.25 0 0 1 34 34.75L34 33.25A0.25 0.25 0 0 1 34.25 33L34.75 33A0.25 0.25 0 0 0 35 32.75L35 31.25A0.25 0.25 0 0 1 35.25 31L35.75 31A0.25 0.25 0 0 1 36 31.25L36 31.75A0.25 0.25 0 0 0 36.25 32L36.75 32A0.25 0.25 0 0 0 37 31.75L37 31.25A0.25 0.25 0 0 1 37.25 31L37.75 31A0.25 0.25 0 0 0 38 30.75L38 30.25A0.25 0.25 0 0 0 37.75 30L37.25 30A0.25 0.25 0 0 0 37 30.25L37 30.75A0.25 0.25 0 0 1 36.75 31L36.25 31A0.25 0.25 0 0 1 36 30.75L36 30.25A0.25 0.25 0 0 0 35.75 30L35.25 30A0.25 0.25 0 0 0 35 30.25ZM25 31.25L25 31.75A0.25 0.25 0 0 0 25.25 32L25.75 32A0.25 0.25 0 0 0 26 31.75L26 31.25A0.25 0.25 0 0 0 25.75 31L25.25 31A0.25 0.25 0 0 0 25 31.25ZM43 31.25L43 32.75A0.25 0.25 0 0 1 42.75 33L41.25 33A0.25 0.25 0 0 1 41 32.75L41 32.25A0.25 0.25 0 0 0 40.75 32L40.25 32A0.25 0.25 0 0 0 40 32.25L40 32.75A0.25 0.25 0 0 0 40.25 33L40.75 33A0.25 0.25 0 0 1 41 33.25L41 34.75A0.25 0.25 0 0 0 41.25 35L41.75 35A0.25 0.25 0 0 0 42 34.75L42 34.25A0.25 0.25 0 0 1 42.25 34L42.75 34A0.25 0.25 0 0 1 43 34.25L43 34.75A0.25 0.25 0 0 0 43.25 35L43.75 35A0.25 0.25 0 0 0 44 34.75L44 34.25A0.25 0.25 0 0 1 44.25 34L44.75 34A0.25 0.25 0 0 0 45 33.75L45 33.25A0.25 0.25 0 0 0 44.75 33L44.25 33A0.25 0.25 0 0 1 44 32.75L44 32.25A0.25 0.25 0 0 1 44.25 32L44.75 32A0.25 0.25 0 0 0 45 31.75L45 31.25A0.25 0.25 0 0 0 44.75 31L43.25 31A0.25 0.25 0 0 0 43 31.25ZM15 32.25L15 32.75A0.25 0.25 0 0 0 15.25 33L15.75 33A0.25 0.25 0 0 0 16 32.75L16 32.25A0.25 0.25 0 0 0 15.75 32L15.25 32A0.25 0.25 0 0 0 15 32.25ZM31 32.25L31 33.75A0.25 0.25 0 0 0 31.25 34L32.75 34A0.25 0.25 0 0 0 33 33.75L33 33.25A0.25 0.25 0 0 0 32.75 33L32.25 33A0.25 0.25 0 0 1 32 32.75L32 32.25A0.25 0.25 0 0 0 31.75 32L31.25 32A0.25 0.25 0 0 0 31 32.25ZM2 33.25L2 33.75A0.25 0.25 0 0 0 2.25 34L3.75 34A0.25 0.25 0 0 1 4 34.25L4 34.75A0.25 0.25 0 0 1 3.75 35L1.25 35A0.25 0.25 0 0 0 1 35.25L1 35.75A0.25 0.25 0 0 1 0.75 36L0.25 36A0.25 0.25 0 0 0 0 36.25L0 36.75A0.25 0.25 0 0 0 0.25 37L0.75 37A0.25 0.25 0 0 0 1 36.75L1 36.25A0.25 0.25 0 0 1 1.25 36L2.75 36A0.25 0.25 0 0 1 3 36.25L3 36.75A0.25 0.25 0 0 0 3.25 37L4.75 37A0.25 0.25 0 0 0 5 36.75L5 34.25A0.25 0.25 0 0 0 4.75 34L4.25 34A0.25 0.25 0 0 1 4 33.75L4 33.25A0.25 0.25 0 0 0 3.75 33L2.25 33A0.25 0.25 0 0 0 2 33.25ZM15 35.25L15 35.75A0.25 0.25 0 0 1 14.75 36L14.25 36A0.25 0.25 0 0 0 14 36.25L14 36.75A0.25 0.25 0 0 0 14.25 37L14.75 37A0.25 0.25 0 0 0 15 36.75L15 36.25A0.25 0.25 0 0 1 15.25 36L15.75 36A0.25 0.25 0 0 1 16 36.25L16 36.75A0.25 0.25 0 0 0 16.25 37L16.75 37A0.25 0.25 0 0 1 17 37.25L17 37.75A0.25 0.25 0 0 0 17.25 38L17.75 38A0.25 0.25 0 0 0 18 37.75L18 37.25A0.25 0.25 0 0 1 18.25 37L18.75 37A0.25 0.25 0 0 0 19 36.75L19 36.25A0.25 0.25 0 0 0 18.75 36L17.25 36A0.25 0.25 0 0 1 17 35.75L17 35.25A0.25 0.25 0 0 0 16.75 35L15.25 35A0.25 0.25 0 0 0 15 35.25ZM31 35.25L31 35.75A0.25 0.25 0 0 0 31.25 36L31.75 36A0.25 0.25 0 0 0 32 35.75L32 35.25A0.25 0.25 0 0 0 31.75 35L31.25 35A0.25 0.25 0 0 0 31 35.25ZM33 35.25L33 35.75A0.25 0.25 0 0 0 33.25 36L33.75 36A0.25 0.25 0 0 0 34 35.75L34 35.25A0.25 0.25 0 0 0 33.75 35L33.25 35A0.25 0.25 0 0 0 33 35.25ZM10 36.25L10 36.75A0.25 0.25 0 0 0 10.25 37L10.75 37A0.25 0.25 0 0 0 11 36.75L11 36.25A0.25 0.25 0 0 0 10.75 36L10.25 36A0.25 0.25 0 0 0 10 36.25ZM26 36.25L26 36.75A0.25 0.25 0 0 1 25.75 37L25.25 37A0.25 0.25 0 0 0 25 37.25L25 41.75A0.25 0.25 0 0 1 24.75 42L24.25 42A0.25 0.25 0 0 1 24 41.75L24 41.25A0.25 0.25 0 0 0 23.75 41L22.25 41A0.25 0.25 0 0 0 22 41.25L22 42.75A0.25 0.25 0 0 1 21.75 43L21.25 43A0.25 0.25 0 0 0 21 43.25L21 43.75A0.25 0.25 0 0 0 21.25 44L22.75 44A0.25 0.25 0 0 0 23 43.75L23 43.25A0.25 0.25 0 0 1 23.25 43L24.75 43A0.25 0.25 0 0 0 25 42.75L25 42.25A0.25 0.25 0 0 1 25.25 42L25.75 42A0.25 0.25 0 0 0 26 41.75L26 37.25A0.25 0.25 0 0 1 26.25 37L26.75 37A0.25 0.25 0 0 0 27 36.75L27 36.25A0.25 0.25 0 0 0 26.75 36L26.25 36A0.25 0.25 0 0 0 26 36.25ZM21 37.25L21 39.75A0.25 0.25 0 0 0 21.25 40L23.75 40A0.25 0.25 0 0 0 24 39.75L24 37.25A0.25 0.25 0 0 0 23.75 37L21.25 37A0.25 0.25 0 0 0 21 37.25ZM37 37.25L37 39.75A0.25 0.25 0 0 0 37.25 40L39.75 40A0.25 0.25 0 0 0 40 39.75L40 37.25A0.25 0.25 0 0 0 39.75 37L37.25 37A0.25 0.25 0 0 0 37 37.25ZM12 38.25L12 38.75A0.25 0.25 0 0 1 11.75 39L9.25 39A0.25 0.25 0 0 0 9 39.25L9 40.75A0.25 0.25 0 0 0 9.25 41L9.75 41A0.25 0.25 0 0 0 10 40.75L10 40.25A0.25 0.25 0 0 1 10.25 40L11.75 40A0.25 0.25 0 0 0 12 39.75L12 39.25A0.25 0.25 0 0 1 12.25 39L12.75 39A0.25 0.25 0 0 1 13 39.25L13 40.75A0.25 0.25 0 0 0 13.25 41L14.75 41A0.25 0.25 0 0 0 15 40.75L15 40.25A0.25 0.25 0 0 0 14.75 40L14.25 40A0.25 0.25 0 0 1 14 39.75L14 39.25A0.25 0.25 0 0 0 13.75 39L13.25 39A0.25 0.25 0 0 1 13 38.75L13 38.25A0.25 0.25 0 0 0 12.75 38L12.25 38A0.25 0.25 0 0 0 12 38.25ZM22 38.25L22 38.75A0.25 0.25 0 0 0 22.25 39L22.75 39A0.25 0.25 0 0 0 23 38.75L23 38.25A0.25 0.25 0 0 0 22.75 38L22.25 38A0.25 0.25 0 0 0 22 38.25ZM38 38.25L38 38.75A0.25 0.25 0 0 0 38.25 39L38.75 39A0.25 0.25 0 0 0 39 38.75L39 38.25A0.25 0.25 0 0 0 38.75 38L38.25 38A0.25 0.25 0 0 0 38 38.25ZM41 39.25L41 39.75A0.25 0.25 0 0 0 41.25 40L41.75 40A0.25 0.25 0 0 1 42 40.25L42 40.75A0.25 0.25 0 0 1 41.75 41L41.25 41A0.25 0.25 0 0 0 41 41.25L41 42.75A0.25 0.25 0 0 0 41.25 43L41.75 43A0.25 0.25 0 0 0 42 42.75L42 41.25A0.25 0.25 0 0 1 42.25 41L42.75 41A0.25 0.25 0 0 0 43 40.75L43 39.25A0.25 0.25 0 0 0 42.75 39L41.25 39A0.25 0.25 0 0 0 41 39.25ZM16 41.25L16 41.75A0.25 0.25 0 0 0 16.25 42L17.75 42A0.25 0.25 0 0 1 18 42.25L18 42.75A0.25 0.25 0 0 0 18.25 43L18.75 43A0.25 0.25 0 0 0 19 42.75L19 42.25A0.25 0.25 0 0 1 19.25 42L20.75 42A0.25 0.25 0 0 0 21 41.75L21 41.25A0.25 0.25 0 0 0 20.75 41L16.25 41A0.25 0.25 0 0 0 16 41.25ZM8 43.25L8 44.75A0.25 0.25 0 0 0 8.25 45L8.75 45A0.25 0.25 0 0 0 9 44.75L9 43.25A0.25 0.25 0 0 0 8.75 43L8.25 43A0.25 0.25 0 0 0 8 43.25ZM44 44.25L44 44.75A0.25 0.25 0 0 0 44.25 45L44.75 45A0.25 0.25 0 0 0 45 44.75L45 44.25A0.25 0.25 0 0 0 44.75 44L44.25 44A0.25 0.25 0 0 0 44 44.25ZM0 0.25L0 6.75A0.25 0.25 0 0 0 0.25 7L6.75 7A0.25 0.25 0 0 0 7 6.75L7 0.25A0.25 0.25 0 0 0 6.75 0L0.25 0A0.25 0.25 0 0 0 0 0.25ZM1 1.25L1 5.75A0.25 0.25 0 0 0 1.25 6L5.75 6A0.25 0.25 0 0 0 6 5.75L6 1.25A0.25 0.25 0 0 0 5.75 1L1.25 1A0.25 0.25 0 0 0 1 1.25ZM2 2.25L2 4.75A0.25 0.25 0 0 0 2.25 5L4.75 5A0.25 0.25 0 0 0 5 4.75L5 2.25A0.25 0.25 0 0 0 4.75 2L2.25 2A0.25 0.25 0 0 0 2 2.25ZM38 0.25L38 6.75A0.25 0.25 0 0 0 38.25 7L44.75 7A0.25 0.25 0 0 0 45 6.75L45 0.25A0.25 0.25 0 0 0 44.75 0L38.25 0A0.25 0.25 0 0 0 38 0.25ZM39 1.25L39 5.75A0.25 0.25 0 0 0 39.25 6L43.75 6A0.25 0.25 0 0 0 44 5.75L44 1.25A0.25 0.25 0 0 0 43.75 1L39.25 1A0.25 0.25 0 0 0 39 1.25ZM40 2.25L40 4.75A0.25 0.25 0 0 0 40.25 5L42.75 5A0.25 0.25 0 0 0 43 4.75L43 2.25A0.25 0.25 0 0 0 42.75 2L40.25 2A0.25 0.25 0 0 0 40 2.25ZM0 38.25L0 44.75A0.25 0.25 0 0 0 0.25 45L6.75 45A0.25 0.25 0 0 0 7 44.75L7 38.25A0.25 0.25 0 0 0 6.75 38L0.25 38A0.25 0.25 0 0 0 0 38.25ZM1 39.25L1 43.75A0.25 0.25 0 0 0 1.25 44L5.75 44A0.25 0.25 0 0 0 6 43.75L6 39.25A0.25 0.25 0 0 0 5.75 39L1.25 39A0.25 0.25 0 0 0 1 39.25ZM2 40.25L2 42.75A0.25 0.25 0 0 0 2.25 43L4.75 43A0.25 0.25 0 0 0 5 42.75L5 40.25A0.25 0.25 0 0 0 4.75 40L2.25 40A0.25 0.25 0 0 0 2 40.25Z" fill="#000000" fill-opacity="0.9"/></g></g></svg>
